<?xml version="1.0" encoding="UTF-8" standalone="no"?>
<svg
   width="205.539mm"
   height="237mm"
   viewBox="0 0 205.539 237"
   version="1.1"
   preserveAspectRatio="xMidYMid meet"
   id="svg13756"
   sodipodi:docname="12_sided_box.svg"
   inkscape:version="1.1 (1:1.1+202105261517+ce6663b3b7)"
   xmlns:inkscape="http://www.inkscape.org/namespaces/inkscape"
   xmlns:sodipodi="http://sodipodi.sourceforge.net/DTD/sodipodi-0.dtd"
   xmlns="http://www.w3.org/2000/svg"
   xmlns:svg="http://www.w3.org/2000/svg">
  <defs
     id="defs13760" />
  <sodipodi:namedview
     id="namedview13758"
     pagecolor="#ffffff"
     bordercolor="#666666"
     borderopacity="1.0"
     inkscape:pageshadow="2"
     inkscape:pageopacity="0.0"
     inkscape:pagecheckerboard="0"
     inkscape:document-units="mm"
     showgrid="false"
     inkscape:zoom="0.74127989"
     inkscape:cx="387.84271"
     inkscape:cy="447.87402"
     inkscape:window-width="1920"
     inkscape:window-height="1043"
     inkscape:window-x="1600"
     inkscape:window-y="0"
     inkscape:window-maximized="1"
     inkscape:current-layer="svg13756" />
  <g
     id="svgGroup"
     stroke-linecap="round"
     fill-rule="evenodd"
     font-size="9pt"
     stroke="#000"
     stroke-width="0.25mm"
     fill="none"
     style="stroke:#000;stroke-width:0.25mm;fill:none">
    <path
       d="M 20.128 236.707 L 20.128 234 L 31.464 234 L 31.756 233.707 L 31.756 224.543 L 31.464 224.25 L 20.56 224.25 L 20.56 217.75 L 31.464 217.75 L 31.756 217.457 L 31.756 209.543 L 31.464 209.25 L 20.56 209.25 L 20.56 202.75 L 31.464 202.75 L 31.756 202.457 L 31.756 194.543 L 31.464 194.25 L 20.56 194.25 L 20.56 187.75 L 31.464 187.75 L 31.756 187.457 L 31.756 179.543 L 31.464 179.25 L 20.56 179.25 L 20.56 172.75 L 31.464 172.75 L 31.756 172.457 L 31.756 163.293 L 31.464 163 L 20.128 163 L 20.128 160.293 L 19.835 160 L 11.921 160 L 11.628 160.293 L 11.628 163 L 11.489 163 L 11.196 163.293 L 11.196 171.75 L 0.293 171.75 L 0 172.043 L 0 179.957 L 0.293 180.25 L 11.196 180.25 L 11.196 186.75 L 0.293 186.75 L 0 187.043 L 0 194.957 L 0.293 195.25 L 11.196 195.25 L 11.196 201.75 L 0.293 201.75 L 0 202.043 L 0 209.957 L 0.293 210.25 L 11.196 210.25 L 11.196 216.75 L 0.293 216.75 L 0 217.043 L 0 224.957 L 0.293 225.25 L 11.196 225.25 L 11.196 233.707 L 11.489 234 L 11.628 234 L 11.628 236.707 L 11.921 237 L 19.835 237 L 20.128 236.707 Z"
       id="side1_outsideCutPath"
       stroke="#FF0000"
       stroke-width="0.1"
       style="stroke:#FF0000;stroke-width:0.1"
       vector-effect="non-scaling-stroke" />
    <path
       d="M 8.897 200.73 L 8.897 200.252 A 2.549 2.549 0 0 0 9.421 200.447 A 2.927 2.927 0 0 0 9.423 200.448 A 2.314 2.314 0 0 0 9.791 200.511 A 1.983 1.983 0 0 0 9.964 200.519 Q 10.367 200.519 10.584 200.39 A 0.443 0.443 0 0 0 10.731 200.255 Q 10.788 200.168 10.799 200.053 A 0.591 0.591 0 0 0 10.802 199.998 A 0.411 0.411 0 0 0 10.676 199.7 A 0.589 0.589 0 0 0 10.629 199.658 Q 10.46 199.52 9.975 199.331 A 8.018 8.018 0 0 0 9.958 199.325 Q 9.583 199.185 9.38 199.074 A 1.39 1.39 0 0 1 9.284 199.016 A 1.12 1.12 0 0 1 9.128 198.894 Q 9.041 198.811 8.986 198.717 A 0.704 0.704 0 0 1 8.902 198.482 A 0.953 0.953 0 0 1 8.888 198.317 A 0.817 0.817 0 0 1 8.953 197.987 Q 9.036 197.796 9.226 197.661 Q 9.564 197.421 10.153 197.421 A 2.713 2.713 0 0 1 11.226 197.644 L 11.043 198.063 Q 10.532 197.852 10.116 197.852 A 1.888 1.888 0 0 0 9.925 197.861 Q 9.698 197.884 9.564 197.967 Q 9.378 198.081 9.378 198.283 A 0.445 0.445 0 0 0 9.392 198.398 A 0.353 0.353 0 0 0 9.448 198.515 A 0.474 0.474 0 0 0 9.515 198.589 Q 9.578 198.646 9.673 198.698 Q 9.828 198.785 10.268 198.95 A 4.837 4.837 0 0 1 10.546 199.06 Q 10.816 199.178 10.975 199.296 A 0.881 0.881 0 0 1 11.085 199.393 A 0.764 0.764 0 0 1 11.295 199.877 A 1.015 1.015 0 0 1 11.298 199.954 Q 11.298 200.429 10.944 200.686 A 1.207 1.207 0 0 1 10.58 200.862 Q 10.416 200.912 10.219 200.931 A 2.736 2.736 0 0 1 9.952 200.944 A 3.462 3.462 0 0 1 9.558 200.923 Q 9.158 200.877 8.897 200.73 Z M 16.123 200.882 L 16.055 200.426 L 16.027 200.426 A 1.159 1.159 0 0 1 15.176 200.931 A 1.737 1.737 0 0 1 14.96 200.944 A 1.56 1.56 0 0 1 14.511 200.882 A 1.178 1.178 0 0 1 13.923 200.488 A 1.506 1.506 0 0 1 13.658 199.981 Q 13.552 199.641 13.552 199.192 A 3.055 3.055 0 0 1 13.592 198.683 Q 13.638 198.411 13.737 198.193 A 1.454 1.454 0 0 1 13.924 197.886 A 1.213 1.213 0 0 1 14.789 197.429 A 1.739 1.739 0 0 1 14.96 197.421 A 1.516 1.516 0 0 1 15.416 197.486 A 1.17 1.17 0 0 1 16.021 197.923 L 16.061 197.923 L 16.04 197.678 L 16.027 197.439 L 16.027 196.056 L 16.542 196.056 L 16.542 200.882 L 16.123 200.882 Z M 20.319 198.95 L 20.319 199.275 L 17.978 199.275 Q 17.988 199.684 18.126 199.958 A 0.967 0.967 0 0 0 18.28 200.184 A 0.935 0.935 0 0 0 18.771 200.461 A 1.417 1.417 0 0 0 19.088 200.494 A 2.719 2.719 0 0 0 20.106 200.292 A 3.116 3.116 0 0 0 20.173 200.265 L 20.173 200.724 Q 19.901 200.841 19.657 200.893 Q 19.414 200.944 19.069 200.944 A 2.001 2.001 0 0 1 18.569 200.884 A 1.417 1.417 0 0 1 17.88 200.485 A 1.515 1.515 0 0 1 17.518 199.819 Q 17.455 199.583 17.446 199.303 A 2.94 2.94 0 0 1 17.444 199.21 A 2.703 2.703 0 0 1 17.494 198.674 Q 17.56 198.348 17.713 198.095 A 1.524 1.524 0 0 1 17.849 197.905 Q 18.254 197.421 18.936 197.421 A 1.568 1.568 0 0 1 19.378 197.48 A 1.193 1.193 0 0 1 19.947 197.841 A 1.439 1.439 0 0 1 20.273 198.499 A 2.095 2.095 0 0 1 20.319 198.95 Z M 22.868 196.348 L 22.868 200.882 L 22.366 200.882 L 22.366 197.65 A 11.707 11.707 0 0 1 22.378 197.116 A 9.893 9.893 0 0 1 22.391 196.887 A 2.915 2.915 0 0 1 22.322 196.954 A 3.684 3.684 0 0 1 22.245 197.024 Q 22.164 197.095 21.507 197.629 L 21.234 197.275 L 22.434 196.348 L 22.868 196.348 Z M 12.65 197.483 L 12.65 200.882 L 12.135 200.882 L 12.135 197.483 L 12.65 197.483 Z M 16.027 199.3 L 16.027 199.192 A 3.435 3.435 0 0 0 16.01 198.837 Q 15.963 198.387 15.787 198.16 A 0.752 0.752 0 0 0 15.407 197.905 Q 15.28 197.865 15.125 197.855 A 1.656 1.656 0 0 0 15.019 197.852 A 0.924 0.924 0 0 0 14.71 197.901 A 0.768 0.768 0 0 0 14.326 198.204 A 1.213 1.213 0 0 0 14.17 198.538 Q 14.123 198.695 14.102 198.884 A 2.871 2.871 0 0 0 14.086 199.198 A 2.845 2.845 0 0 0 14.107 199.556 Q 14.129 199.734 14.176 199.878 A 1.085 1.085 0 0 0 14.325 200.181 A 0.776 0.776 0 0 0 14.886 200.505 A 1.153 1.153 0 0 0 15.025 200.513 Q 15.553 200.513 15.79 200.226 Q 16.012 199.957 16.026 199.38 A 3.263 3.263 0 0 0 16.027 199.3 Z M 17.99 198.857 L 19.767 198.857 A 1.754 1.754 0 0 0 19.746 198.575 Q 19.699 198.289 19.55 198.111 Q 19.333 197.852 18.93 197.852 A 1.015 1.015 0 0 0 18.637 197.892 A 0.784 0.784 0 0 0 18.277 198.119 A 1.017 1.017 0 0 0 18.075 198.46 Q 18.011 198.636 17.99 198.857 Z M 12.099 196.467 A 0.57 0.57 0 0 0 12.092 196.562 Q 12.092 196.735 12.179 196.821 Q 12.265 196.906 12.396 196.906 Q 12.52 196.906 12.61 196.821 Q 12.672 196.761 12.691 196.659 A 0.533 0.533 0 0 0 12.7 196.562 A 0.589 0.589 0 0 0 12.697 196.506 Q 12.684 196.374 12.61 196.304 Q 12.52 196.221 12.396 196.221 A 0.393 0.393 0 0 0 12.37 196.221 A 0.298 0.298 0 0 0 12.179 196.303 Q 12.117 196.361 12.099 196.467 Z"
       id="side1_labelLayer"
       stroke="#777777"
       fill="#777777"
       style="stroke:#777777;fill:#777777"
       vector-effect="non-scaling-stroke" />
    <path
       d="M 54.885 236.707 L 54.885 234 L 66.22 234 L 66.513 233.707 L 66.513 224.543 L 66.22 224.25 L 55.317 224.25 L 55.317 217.75 L 66.22 217.75 L 66.513 217.457 L 66.513 209.543 L 66.22 209.25 L 55.317 209.25 L 55.317 202.75 L 66.22 202.75 L 66.513 202.457 L 66.513 194.543 L 66.22 194.25 L 55.317 194.25 L 55.317 187.75 L 66.22 187.75 L 66.513 187.457 L 66.513 179.543 L 66.22 179.25 L 55.317 179.25 L 55.317 172.75 L 66.22 172.75 L 66.513 172.457 L 66.513 163.293 L 66.22 163 L 54.885 163 L 54.885 160.293 L 54.592 160 L 46.678 160 L 46.385 160.293 L 46.385 163 L 46.245 163 L 45.953 163.293 L 45.953 171.75 L 35.049 171.75 L 34.756 172.043 L 34.756 179.957 L 35.049 180.25 L 45.953 180.25 L 45.953 186.75 L 35.049 186.75 L 34.756 187.043 L 34.756 194.957 L 35.049 195.25 L 45.953 195.25 L 45.953 201.75 L 35.049 201.75 L 34.756 202.043 L 34.756 209.957 L 35.049 210.25 L 45.953 210.25 L 45.953 216.75 L 35.049 216.75 L 34.756 217.043 L 34.756 224.957 L 35.049 225.25 L 45.953 225.25 L 45.953 233.707 L 46.245 234 L 46.385 234 L 46.385 236.707 L 46.678 237 L 54.592 237 L 54.885 236.707 Z"
       id="side3_outsideCutPath"
       stroke="#FF0000"
       stroke-width="0.1"
       style="stroke:#FF0000;stroke-width:0.1"
       vector-effect="non-scaling-stroke" />
    <path
       d="M 57.073 198.494 L 57.073 198.519 A 1.996 1.996 0 0 1 57.386 198.582 Q 57.554 198.631 57.683 198.708 A 0.918 0.918 0 0 1 57.882 198.866 A 0.948 0.948 0 0 1 58.126 199.363 A 1.339 1.339 0 0 1 58.146 199.598 A 1.489 1.489 0 0 1 58.088 200.023 A 1.106 1.106 0 0 1 57.696 200.595 A 1.497 1.497 0 0 1 57.221 200.836 Q 57.009 200.903 56.753 200.928 A 3.397 3.397 0 0 1 56.418 200.944 A 4.153 4.153 0 0 1 56.043 200.927 A 3.226 3.226 0 0 1 55.759 200.889 Q 55.46 200.835 55.178 200.699 L 55.178 200.209 A 2.827 2.827 0 0 0 55.806 200.43 A 3.098 3.098 0 0 0 56.189 200.494 A 2.518 2.518 0 0 0 56.437 200.506 A 2.2 2.2 0 0 0 56.866 200.468 Q 57.612 200.319 57.612 199.585 Q 57.612 198.76 56.316 198.76 L 55.87 198.76 L 55.87 198.317 L 56.322 198.317 A 1.944 1.944 0 0 0 56.661 198.289 Q 56.959 198.237 57.163 198.083 A 0.751 0.751 0 0 0 57.468 197.534 A 1.029 1.029 0 0 0 57.473 197.433 A 0.777 0.777 0 0 0 57.441 197.204 A 0.602 0.602 0 0 0 57.245 196.912 Q 57.017 196.723 56.626 196.723 A 1.958 1.958 0 0 0 56.184 196.772 A 1.768 1.768 0 0 0 56.065 196.804 A 1.751 1.751 0 0 0 55.857 196.883 Q 55.675 196.966 55.463 197.101 L 55.203 196.754 A 2.128 2.128 0 0 1 55.734 196.45 A 2.461 2.461 0 0 1 55.846 196.408 Q 56.211 196.283 56.614 196.283 A 2.322 2.322 0 0 1 57.016 196.315 Q 57.394 196.382 57.64 196.585 A 0.988 0.988 0 0 1 58 197.285 A 1.405 1.405 0 0 1 58.006 197.415 A 1.266 1.266 0 0 1 57.968 197.735 A 0.938 0.938 0 0 1 57.763 198.125 A 1.072 1.072 0 0 1 57.392 198.393 A 1.546 1.546 0 0 1 57.073 198.494 Z M 43.133 200.73 L 43.133 200.252 A 2.549 2.549 0 0 0 43.656 200.447 A 2.927 2.927 0 0 0 43.658 200.448 A 2.314 2.314 0 0 0 44.027 200.511 A 1.983 1.983 0 0 0 44.2 200.519 Q 44.603 200.519 44.82 200.39 A 0.443 0.443 0 0 0 44.966 200.255 Q 45.024 200.168 45.034 200.053 A 0.591 0.591 0 0 0 45.037 199.998 A 0.411 0.411 0 0 0 44.911 199.7 A 0.589 0.589 0 0 0 44.865 199.658 Q 44.696 199.52 44.21 199.331 A 8.018 8.018 0 0 0 44.193 199.325 Q 43.819 199.185 43.615 199.074 A 1.39 1.39 0 0 1 43.519 199.016 A 1.12 1.12 0 0 1 43.363 198.894 Q 43.276 198.811 43.221 198.717 A 0.704 0.704 0 0 1 43.137 198.482 A 0.953 0.953 0 0 1 43.124 198.317 A 0.817 0.817 0 0 1 43.188 197.987 Q 43.271 197.796 43.462 197.661 Q 43.8 197.421 44.389 197.421 A 2.713 2.713 0 0 1 45.462 197.644 L 45.279 198.063 Q 44.767 197.852 44.352 197.852 A 1.888 1.888 0 0 0 44.16 197.861 Q 43.933 197.884 43.8 197.967 Q 43.614 198.081 43.614 198.283 A 0.445 0.445 0 0 0 43.628 198.398 A 0.353 0.353 0 0 0 43.683 198.515 A 0.474 0.474 0 0 0 43.751 198.589 Q 43.814 198.646 43.908 198.698 Q 44.063 198.785 44.504 198.95 A 4.837 4.837 0 0 1 44.781 199.06 Q 45.051 199.178 45.21 199.296 A 0.881 0.881 0 0 1 45.321 199.393 A 0.764 0.764 0 0 1 45.53 199.877 A 1.015 1.015 0 0 1 45.533 199.954 Q 45.533 200.429 45.18 200.686 A 1.207 1.207 0 0 1 44.816 200.862 Q 44.652 200.912 44.454 200.931 A 2.736 2.736 0 0 1 44.187 200.944 A 3.462 3.462 0 0 1 43.794 200.923 Q 43.393 200.877 43.133 200.73 Z M 50.359 200.882 L 50.29 200.426 L 50.263 200.426 A 1.159 1.159 0 0 1 49.412 200.931 A 1.737 1.737 0 0 1 49.196 200.944 A 1.56 1.56 0 0 1 48.746 200.882 A 1.178 1.178 0 0 1 48.158 200.488 A 1.506 1.506 0 0 1 47.894 199.981 Q 47.788 199.641 47.788 199.192 A 3.055 3.055 0 0 1 47.827 198.683 Q 47.873 198.411 47.973 198.193 A 1.454 1.454 0 0 1 48.16 197.886 A 1.213 1.213 0 0 1 49.025 197.429 A 1.739 1.739 0 0 1 49.196 197.421 A 1.516 1.516 0 0 1 49.651 197.486 A 1.17 1.17 0 0 1 50.256 197.923 L 50.297 197.923 L 50.275 197.678 L 50.263 197.439 L 50.263 196.056 L 50.777 196.056 L 50.777 200.882 L 50.359 200.882 Z M 54.555 198.95 L 54.555 199.275 L 52.213 199.275 Q 52.224 199.684 52.361 199.958 A 0.967 0.967 0 0 0 52.516 200.184 A 0.935 0.935 0 0 0 53.007 200.461 A 1.417 1.417 0 0 0 53.323 200.494 A 2.719 2.719 0 0 0 54.342 200.292 A 3.116 3.116 0 0 0 54.409 200.265 L 54.409 200.724 Q 54.136 200.841 53.892 200.893 Q 53.649 200.944 53.305 200.944 A 2.001 2.001 0 0 1 52.804 200.884 A 1.417 1.417 0 0 1 52.115 200.485 A 1.515 1.515 0 0 1 51.753 199.819 Q 51.69 199.583 51.681 199.303 A 2.94 2.94 0 0 1 51.68 199.21 A 2.703 2.703 0 0 1 51.73 198.674 Q 51.796 198.348 51.949 198.095 A 1.524 1.524 0 0 1 52.084 197.905 Q 52.489 197.421 53.171 197.421 A 1.568 1.568 0 0 1 53.613 197.48 A 1.193 1.193 0 0 1 54.182 197.841 A 1.439 1.439 0 0 1 54.509 198.499 A 2.095 2.095 0 0 1 54.555 198.95 Z M 46.885 197.483 L 46.885 200.882 L 46.37 200.882 L 46.37 197.483 L 46.885 197.483 Z M 50.263 199.3 L 50.263 199.192 A 3.435 3.435 0 0 0 50.246 198.837 Q 50.199 198.387 50.022 198.16 A 0.752 0.752 0 0 0 49.642 197.905 Q 49.515 197.865 49.361 197.855 A 1.656 1.656 0 0 0 49.255 197.852 A 0.924 0.924 0 0 0 48.945 197.901 A 0.768 0.768 0 0 0 48.562 198.204 A 1.213 1.213 0 0 0 48.406 198.538 Q 48.358 198.695 48.337 198.884 A 2.871 2.871 0 0 0 48.321 199.198 A 2.845 2.845 0 0 0 48.342 199.556 Q 48.365 199.734 48.412 199.878 A 1.085 1.085 0 0 0 48.56 200.181 A 0.776 0.776 0 0 0 49.122 200.505 A 1.153 1.153 0 0 0 49.261 200.513 Q 49.788 200.513 50.025 200.226 Q 50.247 199.957 50.262 199.38 A 3.263 3.263 0 0 0 50.263 199.3 Z M 52.226 198.857 L 54.003 198.857 A 1.754 1.754 0 0 0 53.981 198.575 Q 53.935 198.289 53.785 198.111 Q 53.568 197.852 53.165 197.852 A 1.015 1.015 0 0 0 52.872 197.892 A 0.784 0.784 0 0 0 52.512 198.119 A 1.017 1.017 0 0 0 52.31 198.46 Q 52.246 198.636 52.226 198.857 Z M 46.334 196.467 A 0.57 0.57 0 0 0 46.327 196.562 Q 46.327 196.735 46.414 196.821 Q 46.501 196.906 46.631 196.906 Q 46.755 196.906 46.845 196.821 Q 46.908 196.761 46.927 196.659 A 0.533 0.533 0 0 0 46.935 196.562 A 0.589 0.589 0 0 0 46.932 196.506 Q 46.92 196.374 46.845 196.304 Q 46.755 196.221 46.631 196.221 A 0.393 0.393 0 0 0 46.605 196.221 A 0.298 0.298 0 0 0 46.414 196.303 Q 46.352 196.361 46.334 196.467 Z"
       id="side3_labelLayer"
       stroke="#777777"
       fill="#777777"
       style="stroke:#777777;fill:#777777"
       vector-effect="non-scaling-stroke" />
    <path
       d="M 89.641 236.707 L 89.641 234 L 100.976 234 L 101.269 233.707 L 101.269 224.543 L 100.976 224.25 L 90.073 224.25 L 90.073 217.75 L 100.976 217.75 L 101.269 217.457 L 101.269 209.543 L 100.976 209.25 L 90.073 209.25 L 90.073 202.75 L 100.976 202.75 L 101.269 202.457 L 101.269 194.543 L 100.976 194.25 L 90.073 194.25 L 90.073 187.75 L 100.976 187.75 L 101.269 187.457 L 101.269 179.543 L 100.976 179.25 L 90.073 179.25 L 90.073 172.75 L 100.976 172.75 L 101.269 172.457 L 101.269 163.293 L 100.976 163 L 89.641 163 L 89.641 160.293 L 89.348 160 L 81.434 160 L 81.141 160.293 L 81.141 163 L 81.002 163 L 80.709 163.293 L 80.709 171.75 L 69.806 171.75 L 69.513 172.043 L 69.513 179.957 L 69.806 180.25 L 80.709 180.25 L 80.709 186.75 L 69.806 186.75 L 69.513 187.043 L 69.513 194.957 L 69.806 195.25 L 80.709 195.25 L 80.709 201.75 L 69.806 201.75 L 69.513 202.043 L 69.513 209.957 L 69.806 210.25 L 80.709 210.25 L 80.709 216.75 L 69.806 216.75 L 69.513 217.043 L 69.513 224.957 L 69.806 225.25 L 80.709 225.25 L 80.709 233.707 L 81.002 234 L 81.141 234 L 81.141 236.707 L 81.434 237 L 89.348 237 L 89.641 236.707 Z"
       id="side5_outsideCutPath"
       stroke="#FF0000"
       stroke-width="0.1"
       style="stroke:#FF0000;stroke-width:0.1"
       vector-effect="non-scaling-stroke" />
    <path
       d="M 90.052 200.699 L 90.052 200.203 A 1.461 1.461 0 0 0 90.287 200.324 Q 90.426 200.38 90.592 200.421 A 2.678 2.678 0 0 0 91.186 200.5 A 2.488 2.488 0 0 0 91.228 200.5 Q 91.624 200.5 91.892 200.364 A 0.932 0.932 0 0 0 92.076 200.243 A 0.832 0.832 0 0 0 92.35 199.774 A 1.276 1.276 0 0 0 92.378 199.499 A 1.093 1.093 0 0 0 92.306 199.084 Q 92.113 198.61 91.404 198.556 A 2.507 2.507 0 0 0 91.215 198.55 A 2.608 2.608 0 0 0 91.012 198.558 Q 90.766 198.578 90.427 198.64 L 90.161 198.469 L 90.331 196.348 L 92.586 196.348 L 92.586 196.822 L 90.772 196.822 L 90.657 198.184 Q 91.014 198.112 91.367 198.112 A 2.332 2.332 0 0 1 91.824 198.154 Q 92.093 198.208 92.303 198.331 A 1.278 1.278 0 0 1 92.494 198.467 A 1.165 1.165 0 0 1 92.893 199.231 A 1.664 1.664 0 0 1 92.905 199.44 A 1.782 1.782 0 0 1 92.847 199.906 A 1.286 1.286 0 0 1 92.457 200.544 Q 92.046 200.911 91.349 200.941 A 2.942 2.942 0 0 1 91.221 200.944 Q 90.455 200.944 90.052 200.699 Z M 77.886 200.73 L 77.886 200.252 A 2.549 2.549 0 0 0 78.41 200.447 A 2.927 2.927 0 0 0 78.412 200.448 A 2.314 2.314 0 0 0 78.78 200.511 A 1.983 1.983 0 0 0 78.953 200.519 Q 79.356 200.519 79.573 200.39 A 0.443 0.443 0 0 0 79.72 200.255 Q 79.777 200.168 79.788 200.053 A 0.591 0.591 0 0 0 79.79 199.998 A 0.411 0.411 0 0 0 79.664 199.7 A 0.589 0.589 0 0 0 79.618 199.658 Q 79.449 199.52 78.963 199.331 A 8.018 8.018 0 0 0 78.947 199.325 Q 78.572 199.185 78.368 199.074 A 1.39 1.39 0 0 1 78.272 199.016 A 1.12 1.12 0 0 1 78.117 198.894 Q 78.03 198.811 77.975 198.717 A 0.704 0.704 0 0 1 77.891 198.482 A 0.953 0.953 0 0 1 77.877 198.317 A 0.817 0.817 0 0 1 77.942 197.987 Q 78.025 197.796 78.215 197.661 Q 78.553 197.421 79.142 197.421 A 2.713 2.713 0 0 1 80.215 197.644 L 80.032 198.063 Q 79.521 197.852 79.105 197.852 A 1.888 1.888 0 0 0 78.913 197.861 Q 78.687 197.884 78.553 197.967 Q 78.367 198.081 78.367 198.283 A 0.445 0.445 0 0 0 78.381 198.398 A 0.353 0.353 0 0 0 78.437 198.515 A 0.474 0.474 0 0 0 78.504 198.589 Q 78.567 198.646 78.661 198.698 Q 78.817 198.785 79.257 198.95 A 4.837 4.837 0 0 1 79.535 199.06 Q 79.805 199.178 79.963 199.296 A 0.881 0.881 0 0 1 80.074 199.393 A 0.764 0.764 0 0 1 80.284 199.877 A 1.015 1.015 0 0 1 80.287 199.954 Q 80.287 200.429 79.933 200.686 A 1.207 1.207 0 0 1 79.569 200.862 Q 79.405 200.912 79.208 200.931 A 2.736 2.736 0 0 1 78.941 200.944 A 3.462 3.462 0 0 1 78.547 200.923 Q 78.146 200.877 77.886 200.73 Z M 85.112 200.882 L 85.044 200.426 L 85.016 200.426 A 1.159 1.159 0 0 1 84.165 200.931 A 1.737 1.737 0 0 1 83.949 200.944 A 1.56 1.56 0 0 1 83.499 200.882 A 1.178 1.178 0 0 1 82.912 200.488 A 1.506 1.506 0 0 1 82.647 199.981 Q 82.541 199.641 82.541 199.192 A 3.055 3.055 0 0 1 82.581 198.683 Q 82.627 198.411 82.726 198.193 A 1.454 1.454 0 0 1 82.913 197.886 A 1.213 1.213 0 0 1 83.778 197.429 A 1.739 1.739 0 0 1 83.949 197.421 A 1.516 1.516 0 0 1 84.404 197.486 A 1.17 1.17 0 0 1 85.01 197.923 L 85.05 197.923 L 85.028 197.678 L 85.016 197.439 L 85.016 196.056 L 85.531 196.056 L 85.531 200.882 L 85.112 200.882 Z M 89.308 198.95 L 89.308 199.275 L 86.967 199.275 Q 86.977 199.684 87.114 199.958 A 0.967 0.967 0 0 0 87.269 200.184 A 0.935 0.935 0 0 0 87.76 200.461 A 1.417 1.417 0 0 0 88.077 200.494 A 2.719 2.719 0 0 0 89.095 200.292 A 3.116 3.116 0 0 0 89.162 200.265 L 89.162 200.724 Q 88.889 200.841 88.646 200.893 Q 88.402 200.944 88.058 200.944 A 2.001 2.001 0 0 1 87.558 200.884 A 1.417 1.417 0 0 1 86.869 200.485 A 1.515 1.515 0 0 1 86.506 199.819 Q 86.443 199.583 86.435 199.303 A 2.94 2.94 0 0 1 86.433 199.21 A 2.703 2.703 0 0 1 86.483 198.674 Q 86.549 198.348 86.702 198.095 A 1.524 1.524 0 0 1 86.838 197.905 Q 87.243 197.421 87.925 197.421 A 1.568 1.568 0 0 1 88.366 197.48 A 1.193 1.193 0 0 1 88.936 197.841 A 1.439 1.439 0 0 1 89.262 198.499 A 2.095 2.095 0 0 1 89.308 198.95 Z M 81.639 197.483 L 81.639 200.882 L 81.124 200.882 L 81.124 197.483 L 81.639 197.483 Z M 85.016 199.3 L 85.016 199.192 A 3.435 3.435 0 0 0 84.999 198.837 Q 84.952 198.387 84.776 198.16 A 0.752 0.752 0 0 0 84.395 197.905 Q 84.269 197.865 84.114 197.855 A 1.656 1.656 0 0 0 84.008 197.852 A 0.924 0.924 0 0 0 83.699 197.901 A 0.768 0.768 0 0 0 83.315 198.204 A 1.213 1.213 0 0 0 83.159 198.538 Q 83.112 198.695 83.091 198.884 A 2.871 2.871 0 0 0 83.075 199.198 A 2.845 2.845 0 0 0 83.096 199.556 Q 83.118 199.734 83.165 199.878 A 1.085 1.085 0 0 0 83.313 200.181 A 0.776 0.776 0 0 0 83.875 200.505 A 1.153 1.153 0 0 0 84.014 200.513 Q 84.541 200.513 84.779 200.226 Q 85.001 199.957 85.015 199.38 A 3.263 3.263 0 0 0 85.016 199.3 Z M 86.979 198.857 L 88.756 198.857 A 1.754 1.754 0 0 0 88.735 198.575 Q 88.688 198.289 88.539 198.111 Q 88.322 197.852 87.919 197.852 A 1.015 1.015 0 0 0 87.625 197.892 A 0.784 0.784 0 0 0 87.266 198.119 A 1.017 1.017 0 0 0 87.064 198.46 Q 86.999 198.636 86.979 198.857 Z M 81.088 196.467 A 0.57 0.57 0 0 0 81.08 196.562 Q 81.08 196.735 81.167 196.821 Q 81.254 196.906 81.384 196.906 Q 81.508 196.906 81.598 196.821 Q 81.661 196.761 81.68 196.659 A 0.533 0.533 0 0 0 81.688 196.562 A 0.589 0.589 0 0 0 81.686 196.506 Q 81.673 196.374 81.598 196.304 Q 81.508 196.221 81.384 196.221 A 0.393 0.393 0 0 0 81.358 196.221 A 0.298 0.298 0 0 0 81.167 196.303 Q 81.106 196.361 81.088 196.467 Z"
       id="side5_labelLayer"
       stroke="#777777"
       fill="#777777"
       style="stroke:#777777;fill:#777777"
       vector-effect="non-scaling-stroke" />
    <path
       d="M 124.398 236.707 L 124.398 234 L 135.733 234 L 136.026 233.707 L 136.026 224.543 L 135.733 224.25 L 124.83 224.25 L 124.83 217.75 L 135.733 217.75 L 136.026 217.457 L 136.026 209.543 L 135.733 209.25 L 124.83 209.25 L 124.83 202.75 L 135.733 202.75 L 136.026 202.457 L 136.026 194.543 L 135.733 194.25 L 124.83 194.25 L 124.83 187.75 L 135.733 187.75 L 136.026 187.457 L 136.026 179.543 L 135.733 179.25 L 124.83 179.25 L 124.83 172.75 L 135.733 172.75 L 136.026 172.457 L 136.026 163.293 L 135.733 163 L 124.398 163 L 124.398 160.293 L 124.105 160 L 116.19 160 L 115.898 160.293 L 115.898 163 L 115.758 163 L 115.465 163.293 L 115.465 171.75 L 104.562 171.75 L 104.269 172.043 L 104.269 179.957 L 104.562 180.25 L 115.465 180.25 L 115.465 186.75 L 104.562 186.75 L 104.269 187.043 L 104.269 194.957 L 104.562 195.25 L 115.465 195.25 L 115.465 201.75 L 104.562 201.75 L 104.269 202.043 L 104.269 209.957 L 104.562 210.25 L 115.465 210.25 L 115.465 216.75 L 104.562 216.75 L 104.269 217.043 L 104.269 224.957 L 104.562 225.25 L 115.465 225.25 L 115.465 233.707 L 115.758 234 L 115.898 234 L 115.898 236.707 L 116.19 237 L 124.105 237 L 124.398 236.707 Z"
       id="side7_outsideCutPath"
       stroke="#FF0000"
       stroke-width="0.1"
       style="stroke:#FF0000;stroke-width:0.1"
       vector-effect="non-scaling-stroke" />
    <path
       d="M 112.621 200.73 L 112.621 200.252 A 2.549 2.549 0 0 0 113.144 200.447 A 2.927 2.927 0 0 0 113.147 200.448 A 2.314 2.314 0 0 0 113.515 200.511 A 1.983 1.983 0 0 0 113.688 200.519 Q 114.091 200.519 114.308 200.39 A 0.443 0.443 0 0 0 114.454 200.255 Q 114.512 200.168 114.523 200.053 A 0.591 0.591 0 0 0 114.525 199.998 A 0.411 0.411 0 0 0 114.399 199.7 A 0.589 0.589 0 0 0 114.353 199.658 Q 114.184 199.52 113.698 199.331 A 8.018 8.018 0 0 0 113.682 199.325 Q 113.307 199.185 113.103 199.074 A 1.39 1.39 0 0 1 113.007 199.016 A 1.12 1.12 0 0 1 112.852 198.894 Q 112.764 198.811 112.709 198.717 A 0.704 0.704 0 0 1 112.625 198.482 A 0.953 0.953 0 0 1 112.612 198.317 A 0.817 0.817 0 0 1 112.676 197.987 Q 112.76 197.796 112.95 197.661 Q 113.288 197.421 113.877 197.421 A 2.713 2.713 0 0 1 114.95 197.644 L 114.767 198.063 Q 114.255 197.852 113.84 197.852 A 1.888 1.888 0 0 0 113.648 197.861 Q 113.421 197.884 113.288 197.967 Q 113.102 198.081 113.102 198.283 A 0.445 0.445 0 0 0 113.116 198.398 A 0.353 0.353 0 0 0 113.171 198.515 A 0.474 0.474 0 0 0 113.239 198.589 Q 113.302 198.646 113.396 198.698 Q 113.551 198.785 113.992 198.95 A 4.837 4.837 0 0 1 114.27 199.06 Q 114.539 199.178 114.698 199.296 A 0.881 0.881 0 0 1 114.809 199.393 A 0.764 0.764 0 0 1 115.018 199.877 A 1.015 1.015 0 0 1 115.021 199.954 Q 115.021 200.429 114.668 200.686 A 1.207 1.207 0 0 1 114.304 200.862 Q 114.14 200.912 113.942 200.931 A 2.736 2.736 0 0 1 113.675 200.944 A 3.462 3.462 0 0 1 113.282 200.923 Q 112.881 200.877 112.621 200.73 Z M 125.829 200.882 L 125.258 200.882 L 127.138 196.822 L 124.666 196.822 L 124.666 196.348 L 127.684 196.348 L 127.684 196.76 L 125.829 200.882 Z M 119.847 200.882 L 119.779 200.426 L 119.751 200.426 A 1.159 1.159 0 0 1 118.9 200.931 A 1.737 1.737 0 0 1 118.684 200.944 A 1.56 1.56 0 0 1 118.234 200.882 A 1.178 1.178 0 0 1 117.646 200.488 A 1.506 1.506 0 0 1 117.382 199.981 Q 117.276 199.641 117.276 199.192 A 3.055 3.055 0 0 1 117.315 198.683 Q 117.361 198.411 117.461 198.193 A 1.454 1.454 0 0 1 117.648 197.886 A 1.213 1.213 0 0 1 118.513 197.429 A 1.739 1.739 0 0 1 118.684 197.421 A 1.516 1.516 0 0 1 119.139 197.486 A 1.17 1.17 0 0 1 119.744 197.923 L 119.785 197.923 L 119.763 197.678 L 119.751 197.439 L 119.751 196.056 L 120.265 196.056 L 120.265 200.882 L 119.847 200.882 Z M 124.043 198.95 L 124.043 199.275 L 121.701 199.275 Q 121.712 199.684 121.849 199.958 A 0.967 0.967 0 0 0 122.004 200.184 A 0.935 0.935 0 0 0 122.495 200.461 A 1.417 1.417 0 0 0 122.812 200.494 A 2.719 2.719 0 0 0 123.83 200.292 A 3.116 3.116 0 0 0 123.897 200.265 L 123.897 200.724 Q 123.624 200.841 123.381 200.893 Q 123.137 200.944 122.793 200.944 A 2.001 2.001 0 0 1 122.292 200.884 A 1.417 1.417 0 0 1 121.604 200.485 A 1.515 1.515 0 0 1 121.241 199.819 Q 121.178 199.583 121.169 199.303 A 2.94 2.94 0 0 1 121.168 199.21 A 2.703 2.703 0 0 1 121.218 198.674 Q 121.284 198.348 121.437 198.095 A 1.524 1.524 0 0 1 121.573 197.905 Q 121.977 197.421 122.66 197.421 A 1.568 1.568 0 0 1 123.101 197.48 A 1.193 1.193 0 0 1 123.671 197.841 A 1.439 1.439 0 0 1 123.997 198.499 A 2.095 2.095 0 0 1 124.043 198.95 Z M 116.373 197.483 L 116.373 200.882 L 115.859 200.882 L 115.859 197.483 L 116.373 197.483 Z M 119.751 199.3 L 119.751 199.192 A 3.435 3.435 0 0 0 119.734 198.837 Q 119.687 198.387 119.51 198.16 A 0.752 0.752 0 0 0 119.13 197.905 Q 119.003 197.865 118.849 197.855 A 1.656 1.656 0 0 0 118.743 197.852 A 0.924 0.924 0 0 0 118.433 197.901 A 0.768 0.768 0 0 0 118.05 198.204 A 1.213 1.213 0 0 0 117.894 198.538 Q 117.846 198.695 117.825 198.884 A 2.871 2.871 0 0 0 117.809 199.198 A 2.845 2.845 0 0 0 117.83 199.556 Q 117.853 199.734 117.9 199.878 A 1.085 1.085 0 0 0 118.048 200.181 A 0.776 0.776 0 0 0 118.61 200.505 A 1.153 1.153 0 0 0 118.749 200.513 Q 119.276 200.513 119.513 200.226 Q 119.735 199.957 119.75 199.38 A 3.263 3.263 0 0 0 119.751 199.3 Z M 121.714 198.857 L 123.491 198.857 A 1.754 1.754 0 0 0 123.47 198.575 Q 123.423 198.289 123.274 198.111 Q 123.057 197.852 122.653 197.852 A 1.015 1.015 0 0 0 122.36 197.892 A 0.784 0.784 0 0 0 122.001 198.119 A 1.017 1.017 0 0 0 121.798 198.46 Q 121.734 198.636 121.714 198.857 Z M 115.822 196.467 A 0.57 0.57 0 0 0 115.815 196.562 Q 115.815 196.735 115.902 196.821 Q 115.989 196.906 116.119 196.906 Q 116.243 196.906 116.333 196.821 Q 116.396 196.761 116.415 196.659 A 0.533 0.533 0 0 0 116.423 196.562 A 0.589 0.589 0 0 0 116.42 196.506 Q 116.408 196.374 116.333 196.304 Q 116.243 196.221 116.119 196.221 A 0.393 0.393 0 0 0 116.093 196.221 A 0.298 0.298 0 0 0 115.902 196.303 Q 115.84 196.361 115.822 196.467 Z"
       id="side7_labelLayer"
       stroke="#777777"
       fill="#777777"
       style="stroke:#777777;fill:#777777"
       vector-effect="non-scaling-stroke" />
    <path
       d="M 159.154 236.707 L 159.154 234 L 170.489 234 L 170.782 233.707 L 170.782 224.543 L 170.489 224.25 L 159.586 224.25 L 159.586 217.75 L 170.489 217.75 L 170.782 217.457 L 170.782 209.543 L 170.489 209.25 L 159.586 209.25 L 159.586 202.75 L 170.489 202.75 L 170.782 202.457 L 170.782 194.543 L 170.489 194.25 L 159.586 194.25 L 159.586 187.75 L 170.489 187.75 L 170.782 187.457 L 170.782 179.543 L 170.489 179.25 L 159.586 179.25 L 159.586 172.75 L 170.489 172.75 L 170.782 172.457 L 170.782 163.293 L 170.489 163 L 159.154 163 L 159.154 160.293 L 158.861 160 L 150.947 160 L 150.654 160.293 L 150.654 163 L 150.515 163 L 150.222 163.293 L 150.222 171.75 L 139.319 171.75 L 139.026 172.043 L 139.026 179.957 L 139.319 180.25 L 150.222 180.25 L 150.222 186.75 L 139.319 186.75 L 139.026 187.043 L 139.026 194.957 L 139.319 195.25 L 150.222 195.25 L 150.222 201.75 L 139.319 201.75 L 139.026 202.043 L 139.026 209.957 L 139.319 210.25 L 150.222 210.25 L 150.222 216.75 L 139.319 216.75 L 139.026 217.043 L 139.026 224.957 L 139.319 225.25 L 150.222 225.25 L 150.222 233.707 L 150.515 234 L 150.654 234 L 150.654 236.707 L 150.947 237 L 158.861 237 L 159.154 236.707 Z"
       id="side9_outsideCutPath"
       stroke="#FF0000"
       stroke-width="0.1"
       style="stroke:#FF0000;stroke-width:0.1"
       vector-effect="non-scaling-stroke" />
    <path
       d="M 159.801 200.882 L 159.801 200.438 A 1.603 1.603 0 0 0 160.097 200.503 A 2.154 2.154 0 0 0 160.365 200.519 A 1.91 1.91 0 0 0 160.814 200.469 A 1.219 1.219 0 0 0 161.489 200.058 A 1.511 1.511 0 0 0 161.733 199.624 Q 161.811 199.415 161.854 199.157 A 4.002 4.002 0 0 0 161.903 198.646 L 161.866 198.646 Q 161.696 198.903 161.413 199.038 Q 161.131 199.173 160.778 199.173 A 1.627 1.627 0 0 1 160.369 199.124 A 1.157 1.157 0 0 1 159.822 198.813 A 1.181 1.181 0 0 1 159.524 198.273 Q 159.476 198.089 159.47 197.871 A 2.279 2.279 0 0 1 159.469 197.808 A 2.039 2.039 0 0 1 159.519 197.341 A 1.363 1.363 0 0 1 159.864 196.692 A 1.321 1.321 0 0 1 160.672 196.297 A 1.831 1.831 0 0 1 160.905 196.283 A 1.518 1.518 0 0 1 161.363 196.35 A 1.31 1.31 0 0 1 161.713 196.52 A 1.388 1.388 0 0 1 162.113 196.949 A 1.845 1.845 0 0 1 162.244 197.211 Q 162.422 197.645 162.43 198.227 A 4.022 4.022 0 0 1 162.431 198.283 Q 162.431 200.758 160.648 200.931 A 2.876 2.876 0 0 1 160.371 200.944 Q 160.012 200.944 159.801 200.882 Z M 147.387 200.73 L 147.387 200.252 A 2.549 2.549 0 0 0 147.91 200.447 A 2.927 2.927 0 0 0 147.912 200.448 A 2.314 2.314 0 0 0 148.28 200.511 A 1.983 1.983 0 0 0 148.453 200.519 Q 148.857 200.519 149.074 200.39 A 0.443 0.443 0 0 0 149.22 200.255 Q 149.277 200.168 149.288 200.053 A 0.591 0.591 0 0 0 149.291 199.998 A 0.411 0.411 0 0 0 149.165 199.7 A 0.589 0.589 0 0 0 149.119 199.658 Q 148.949 199.52 148.464 199.331 A 8.018 8.018 0 0 0 148.447 199.325 Q 148.072 199.185 147.869 199.074 A 1.39 1.39 0 0 1 147.773 199.016 A 1.12 1.12 0 0 1 147.617 198.894 Q 147.53 198.811 147.475 198.717 A 0.704 0.704 0 0 1 147.391 198.482 A 0.953 0.953 0 0 1 147.377 198.317 A 0.817 0.817 0 0 1 147.442 197.987 Q 147.525 197.796 147.715 197.661 Q 148.053 197.421 148.643 197.421 A 2.713 2.713 0 0 1 149.716 197.644 L 149.533 198.063 Q 149.021 197.852 148.605 197.852 A 1.888 1.888 0 0 0 148.414 197.861 Q 148.187 197.884 148.053 197.967 Q 147.867 198.081 147.867 198.283 A 0.445 0.445 0 0 0 147.882 198.398 A 0.353 0.353 0 0 0 147.937 198.515 A 0.474 0.474 0 0 0 148.005 198.589 Q 148.067 198.646 148.162 198.698 Q 148.317 198.785 148.757 198.95 A 4.837 4.837 0 0 1 149.035 199.06 Q 149.305 199.178 149.464 199.296 A 0.881 0.881 0 0 1 149.574 199.393 A 0.764 0.764 0 0 1 149.784 199.877 A 1.015 1.015 0 0 1 149.787 199.954 Q 149.787 200.429 149.433 200.686 A 1.207 1.207 0 0 1 149.069 200.862 Q 148.905 200.912 148.708 200.931 A 2.736 2.736 0 0 1 148.441 200.944 A 3.462 3.462 0 0 1 148.048 200.923 Q 147.647 200.877 147.387 200.73 Z M 154.612 200.882 L 154.544 200.426 L 154.516 200.426 A 1.159 1.159 0 0 1 153.665 200.931 A 1.737 1.737 0 0 1 153.449 200.944 A 1.56 1.56 0 0 1 153 200.882 A 1.178 1.178 0 0 1 152.412 200.488 A 1.506 1.506 0 0 1 152.148 199.981 Q 152.041 199.641 152.041 199.192 A 3.055 3.055 0 0 1 152.081 198.683 Q 152.127 198.411 152.227 198.193 A 1.454 1.454 0 0 1 152.414 197.886 A 1.213 1.213 0 0 1 153.278 197.429 A 1.739 1.739 0 0 1 153.449 197.421 A 1.516 1.516 0 0 1 153.905 197.486 A 1.17 1.17 0 0 1 154.51 197.923 L 154.55 197.923 L 154.529 197.678 L 154.516 197.439 L 154.516 196.056 L 155.031 196.056 L 155.031 200.882 L 154.612 200.882 Z M 158.808 198.95 L 158.808 199.275 L 156.467 199.275 Q 156.478 199.684 156.615 199.958 A 0.967 0.967 0 0 0 156.769 200.184 A 0.935 0.935 0 0 0 157.26 200.461 A 1.417 1.417 0 0 0 157.577 200.494 A 2.719 2.719 0 0 0 158.595 200.292 A 3.116 3.116 0 0 0 158.663 200.265 L 158.663 200.724 Q 158.39 200.841 158.146 200.893 Q 157.903 200.944 157.559 200.944 A 2.001 2.001 0 0 1 157.058 200.884 A 1.417 1.417 0 0 1 156.369 200.485 A 1.515 1.515 0 0 1 156.007 199.819 Q 155.944 199.583 155.935 199.303 A 2.94 2.94 0 0 1 155.934 199.21 A 2.703 2.703 0 0 1 155.984 198.674 Q 156.049 198.348 156.202 198.095 A 1.524 1.524 0 0 1 156.338 197.905 Q 156.743 197.421 157.425 197.421 A 1.568 1.568 0 0 1 157.867 197.48 A 1.193 1.193 0 0 1 158.436 197.841 A 1.439 1.439 0 0 1 158.762 198.499 A 2.095 2.095 0 0 1 158.808 198.95 Z M 151.139 197.483 L 151.139 200.882 L 150.624 200.882 L 150.624 197.483 L 151.139 197.483 Z M 154.516 199.3 L 154.516 199.192 A 3.435 3.435 0 0 0 154.499 198.837 Q 154.452 198.387 154.276 198.16 A 0.752 0.752 0 0 0 153.896 197.905 Q 153.769 197.865 153.614 197.855 A 1.656 1.656 0 0 0 153.508 197.852 A 0.924 0.924 0 0 0 153.199 197.901 A 0.768 0.768 0 0 0 152.815 198.204 A 1.213 1.213 0 0 0 152.66 198.538 Q 152.612 198.695 152.591 198.884 A 2.871 2.871 0 0 0 152.575 199.198 A 2.845 2.845 0 0 0 152.596 199.556 Q 152.619 199.734 152.665 199.878 A 1.085 1.085 0 0 0 152.814 200.181 A 0.776 0.776 0 0 0 153.376 200.505 A 1.153 1.153 0 0 0 153.515 200.513 Q 154.042 200.513 154.279 200.226 Q 154.501 199.957 154.515 199.38 A 3.263 3.263 0 0 0 154.516 199.3 Z M 160.905 196.723 A 1.102 1.102 0 0 0 160.618 196.758 A 0.773 0.773 0 0 0 160.219 197.008 A 0.952 0.952 0 0 0 160.035 197.36 Q 159.994 197.5 159.982 197.667 A 1.955 1.955 0 0 0 159.978 197.802 Q 159.978 198.249 160.201 198.505 A 0.703 0.703 0 0 0 160.531 198.713 Q 160.646 198.749 160.785 198.758 A 1.497 1.497 0 0 0 160.88 198.76 A 1.21 1.21 0 0 0 161.27 198.699 A 1.122 1.122 0 0 0 161.399 198.646 A 0.999 0.999 0 0 0 161.646 198.48 A 0.881 0.881 0 0 0 161.773 198.332 A 0.795 0.795 0 0 0 161.878 198.123 A 0.676 0.676 0 0 0 161.91 197.917 A 1.458 1.458 0 0 0 161.839 197.459 A 1.349 1.349 0 0 0 161.782 197.315 A 1.12 1.12 0 0 0 161.599 197.032 A 0.986 0.986 0 0 0 161.427 196.881 A 0.89 0.89 0 0 0 160.928 196.723 A 1.084 1.084 0 0 0 160.905 196.723 Z M 156.479 198.857 L 158.256 198.857 A 1.754 1.754 0 0 0 158.235 198.575 Q 158.188 198.289 158.039 198.111 Q 157.822 197.852 157.419 197.852 A 1.015 1.015 0 0 0 157.126 197.892 A 0.784 0.784 0 0 0 156.766 198.119 A 1.017 1.017 0 0 0 156.564 198.46 Q 156.5 198.636 156.479 198.857 Z M 150.588 196.467 A 0.57 0.57 0 0 0 150.581 196.562 Q 150.581 196.735 150.668 196.821 Q 150.754 196.906 150.885 196.906 Q 151.009 196.906 151.099 196.821 Q 151.161 196.761 151.18 196.659 A 0.533 0.533 0 0 0 151.189 196.562 A 0.589 0.589 0 0 0 151.186 196.506 Q 151.174 196.374 151.099 196.304 Q 151.009 196.221 150.885 196.221 A 0.393 0.393 0 0 0 150.859 196.221 A 0.298 0.298 0 0 0 150.668 196.303 Q 150.606 196.361 150.588 196.467 Z"
       id="side9_labelLayer"
       stroke="#777777"
       fill="#777777"
       style="stroke:#777777;fill:#777777"
       vector-effect="non-scaling-stroke" />
    <path
       d="M 193.91 236.707 L 193.91 234 L 205.246 234 L 205.539 233.707 L 205.539 224.543 L 205.246 224.25 L 194.343 224.25 L 194.343 217.75 L 205.246 217.75 L 205.539 217.457 L 205.539 209.543 L 205.246 209.25 L 194.343 209.25 L 194.343 202.75 L 205.246 202.75 L 205.539 202.457 L 205.539 194.543 L 205.246 194.25 L 194.343 194.25 L 194.343 187.75 L 205.246 187.75 L 205.539 187.457 L 205.539 179.543 L 205.246 179.25 L 194.343 179.25 L 194.343 172.75 L 205.246 172.75 L 205.539 172.457 L 205.539 163.293 L 205.246 163 L 193.91 163 L 193.91 160.293 L 193.618 160 L 185.703 160 L 185.41 160.293 L 185.41 163 L 185.271 163 L 184.978 163.293 L 184.978 171.75 L 174.075 171.75 L 173.782 172.043 L 173.782 179.957 L 174.075 180.25 L 184.978 180.25 L 184.978 186.75 L 174.075 186.75 L 173.782 187.043 L 173.782 194.957 L 174.075 195.25 L 184.978 195.25 L 184.978 201.75 L 174.075 201.75 L 173.782 202.043 L 173.782 209.957 L 174.075 210.25 L 184.978 210.25 L 184.978 216.75 L 174.075 216.75 L 173.782 217.043 L 173.782 224.957 L 174.075 225.25 L 184.978 225.25 L 184.978 233.707 L 185.271 234 L 185.41 234 L 185.41 236.707 L 185.703 237 L 193.618 237 L 193.91 236.707 Z"
       id="side11_outsideCutPath"
       stroke="#FF0000"
       stroke-width="0.1"
       style="stroke:#FF0000;stroke-width:0.1"
       vector-effect="non-scaling-stroke" />
    <path
       d="M 180.864 200.73 L 180.864 200.252 A 2.549 2.549 0 0 0 181.387 200.447 A 2.927 2.927 0 0 0 181.39 200.448 A 2.314 2.314 0 0 0 181.758 200.511 A 1.983 1.983 0 0 0 181.931 200.519 Q 182.334 200.519 182.551 200.39 A 0.443 0.443 0 0 0 182.697 200.255 Q 182.755 200.168 182.766 200.053 A 0.591 0.591 0 0 0 182.768 199.998 A 0.411 0.411 0 0 0 182.642 199.7 A 0.589 0.589 0 0 0 182.596 199.658 Q 182.427 199.52 181.941 199.331 A 8.018 8.018 0 0 0 181.924 199.325 Q 181.55 199.185 181.346 199.074 A 1.39 1.39 0 0 1 181.25 199.016 A 1.12 1.12 0 0 1 181.095 198.894 Q 181.007 198.811 180.952 198.717 A 0.704 0.704 0 0 1 180.868 198.482 A 0.953 0.953 0 0 1 180.855 198.317 A 0.817 0.817 0 0 1 180.919 197.987 Q 181.002 197.796 181.193 197.661 Q 181.531 197.421 182.12 197.421 A 2.713 2.713 0 0 1 183.193 197.644 L 183.01 198.063 Q 182.498 197.852 182.083 197.852 A 1.888 1.888 0 0 0 181.891 197.861 Q 181.664 197.884 181.531 197.967 Q 181.345 198.081 181.345 198.283 A 0.445 0.445 0 0 0 181.359 198.398 A 0.353 0.353 0 0 0 181.414 198.515 A 0.474 0.474 0 0 0 181.482 198.589 Q 181.545 198.646 181.639 198.698 Q 181.794 198.785 182.235 198.95 A 4.837 4.837 0 0 1 182.512 199.06 Q 182.782 199.178 182.941 199.296 A 0.881 0.881 0 0 1 183.052 199.393 A 0.764 0.764 0 0 1 183.261 199.877 A 1.015 1.015 0 0 1 183.264 199.954 Q 183.264 200.429 182.911 200.686 A 1.207 1.207 0 0 1 182.547 200.862 Q 182.383 200.912 182.185 200.931 A 2.736 2.736 0 0 1 181.918 200.944 A 3.462 3.462 0 0 1 181.525 200.923 Q 181.124 200.877 180.864 200.73 Z M 188.09 200.882 L 188.021 200.426 L 187.994 200.426 A 1.159 1.159 0 0 1 187.143 200.931 A 1.737 1.737 0 0 1 186.927 200.944 A 1.56 1.56 0 0 1 186.477 200.882 A 1.178 1.178 0 0 1 185.889 200.488 A 1.506 1.506 0 0 1 185.625 199.981 Q 185.519 199.641 185.519 199.192 A 3.055 3.055 0 0 1 185.558 198.683 Q 185.604 198.411 185.704 198.193 A 1.454 1.454 0 0 1 185.891 197.886 A 1.213 1.213 0 0 1 186.756 197.429 A 1.739 1.739 0 0 1 186.927 197.421 A 1.516 1.516 0 0 1 187.382 197.486 A 1.17 1.17 0 0 1 187.987 197.923 L 188.028 197.923 L 188.006 197.678 L 187.994 197.439 L 187.994 196.056 L 188.508 196.056 L 188.508 200.882 L 188.09 200.882 Z M 192.286 198.95 L 192.286 199.275 L 189.944 199.275 Q 189.955 199.684 190.092 199.958 A 0.967 0.967 0 0 0 190.247 200.184 A 0.935 0.935 0 0 0 190.738 200.461 A 1.417 1.417 0 0 0 191.054 200.494 A 2.719 2.719 0 0 0 192.073 200.292 A 3.116 3.116 0 0 0 192.14 200.265 L 192.14 200.724 Q 191.867 200.841 191.624 200.893 Q 191.38 200.944 191.036 200.944 A 2.001 2.001 0 0 1 190.535 200.884 A 1.417 1.417 0 0 1 189.847 200.485 A 1.515 1.515 0 0 1 189.484 199.819 Q 189.421 199.583 189.412 199.303 A 2.94 2.94 0 0 1 189.411 199.21 A 2.703 2.703 0 0 1 189.461 198.674 Q 189.527 198.348 189.68 198.095 A 1.524 1.524 0 0 1 189.816 197.905 Q 190.22 197.421 190.903 197.421 A 1.568 1.568 0 0 1 191.344 197.48 A 1.193 1.193 0 0 1 191.914 197.841 A 1.439 1.439 0 0 1 192.24 198.499 A 2.095 2.095 0 0 1 192.286 198.95 Z M 194.835 196.348 L 194.835 200.882 L 194.332 200.882 L 194.332 197.65 A 11.707 11.707 0 0 1 194.344 197.116 A 9.893 9.893 0 0 1 194.357 196.887 A 2.915 2.915 0 0 1 194.288 196.954 A 3.684 3.684 0 0 1 194.212 197.024 Q 194.131 197.095 193.473 197.629 L 193.201 197.275 L 194.401 196.348 L 194.835 196.348 Z M 198.466 196.348 L 198.466 200.882 L 197.964 200.882 L 197.964 197.65 A 11.707 11.707 0 0 1 197.976 197.116 A 9.893 9.893 0 0 1 197.989 196.887 A 2.915 2.915 0 0 1 197.92 196.954 A 3.684 3.684 0 0 1 197.843 197.024 Q 197.762 197.095 197.105 197.629 L 196.832 197.275 L 198.032 196.348 L 198.466 196.348 Z M 184.616 197.483 L 184.616 200.882 L 184.102 200.882 L 184.102 197.483 L 184.616 197.483 Z M 187.994 199.3 L 187.994 199.192 A 3.435 3.435 0 0 0 187.977 198.837 Q 187.93 198.387 187.753 198.16 A 0.752 0.752 0 0 0 187.373 197.905 Q 187.246 197.865 187.092 197.855 A 1.656 1.656 0 0 0 186.986 197.852 A 0.924 0.924 0 0 0 186.676 197.901 A 0.768 0.768 0 0 0 186.293 198.204 A 1.213 1.213 0 0 0 186.137 198.538 Q 186.089 198.695 186.068 198.884 A 2.871 2.871 0 0 0 186.052 199.198 A 2.845 2.845 0 0 0 186.073 199.556 Q 186.096 199.734 186.143 199.878 A 1.085 1.085 0 0 0 186.291 200.181 A 0.776 0.776 0 0 0 186.853 200.505 A 1.153 1.153 0 0 0 186.992 200.513 Q 187.519 200.513 187.756 200.226 Q 187.978 199.957 187.993 199.38 A 3.263 3.263 0 0 0 187.994 199.3 Z M 189.957 198.857 L 191.734 198.857 A 1.754 1.754 0 0 0 191.712 198.575 Q 191.666 198.289 191.517 198.111 Q 191.299 197.852 190.896 197.852 A 1.015 1.015 0 0 0 190.603 197.892 A 0.784 0.784 0 0 0 190.244 198.119 A 1.017 1.017 0 0 0 190.041 198.46 Q 189.977 198.636 189.957 198.857 Z M 184.065 196.467 A 0.57 0.57 0 0 0 184.058 196.562 Q 184.058 196.735 184.145 196.821 Q 184.232 196.906 184.362 196.906 Q 184.486 196.906 184.576 196.821 Q 184.639 196.761 184.658 196.659 A 0.533 0.533 0 0 0 184.666 196.562 A 0.589 0.589 0 0 0 184.663 196.506 Q 184.651 196.374 184.576 196.304 Q 184.486 196.221 184.362 196.221 A 0.393 0.393 0 0 0 184.336 196.221 A 0.298 0.298 0 0 0 184.145 196.303 Q 184.083 196.361 184.065 196.467 Z"
       id="side11_labelLayer"
       stroke="#777777"
       fill="#777777"
       style="stroke:#777777;fill:#777777"
       vector-effect="non-scaling-stroke" />
    <path
       d="M 20.128 156.707 L 20.128 154 L 31.464 154 L 31.756 153.707 L 31.756 144.543 L 31.464 144.25 L 20.56 144.25 L 20.56 137.75 L 31.464 137.75 L 31.756 137.457 L 31.756 129.543 L 31.464 129.25 L 20.56 129.25 L 20.56 122.75 L 31.464 122.75 L 31.756 122.457 L 31.756 114.543 L 31.464 114.25 L 20.56 114.25 L 20.56 107.75 L 31.464 107.75 L 31.756 107.457 L 31.756 99.543 L 31.464 99.25 L 20.56 99.25 L 20.56 92.75 L 31.464 92.75 L 31.756 92.457 L 31.756 83.293 L 31.464 83 L 20.128 83 L 20.128 80.293 L 19.835 80 L 11.921 80 L 11.628 80.293 L 11.628 83 L 11.489 83 L 11.196 83.293 L 11.196 91.75 L 0.293 91.75 L 0 92.043 L 0 99.957 L 0.293 100.25 L 11.196 100.25 L 11.196 106.75 L 0.293 106.75 L 0 107.043 L 0 114.957 L 0.293 115.25 L 11.196 115.25 L 11.196 121.75 L 0.293 121.75 L 0 122.043 L 0 129.957 L 0.293 130.25 L 11.196 130.25 L 11.196 136.75 L 0.293 136.75 L 0 137.043 L 0 144.957 L 0.293 145.25 L 11.196 145.25 L 11.196 153.707 L 11.489 154 L 11.628 154 L 11.628 156.707 L 11.921 157 L 19.835 157 L 20.128 156.707 Z"
       id="side0_outsideCutPath"
       stroke="#FF0000"
       stroke-width="0.1"
       style="stroke:#FF0000;stroke-width:0.1"
       vector-effect="non-scaling-stroke" />
    <path
       d="M 8.348 120.73 L 8.348 120.252 A 2.549 2.549 0 0 0 8.872 120.447 A 2.927 2.927 0 0 0 8.874 120.448 A 2.314 2.314 0 0 0 9.242 120.511 A 1.983 1.983 0 0 0 9.415 120.519 Q 9.818 120.519 10.036 120.39 A 0.443 0.443 0 0 0 10.182 120.255 Q 10.239 120.168 10.25 120.053 A 0.591 0.591 0 0 0 10.253 119.998 A 0.411 0.411 0 0 0 10.127 119.7 A 0.589 0.589 0 0 0 10.081 119.658 Q 9.911 119.519 9.426 119.331 A 8.018 8.018 0 0 0 9.409 119.325 Q 9.034 119.185 8.831 119.074 A 1.39 1.39 0 0 1 8.735 119.016 A 1.12 1.12 0 0 1 8.579 118.894 Q 8.492 118.811 8.437 118.717 A 0.704 0.704 0 0 1 8.353 118.482 A 0.953 0.953 0 0 1 8.339 118.317 A 0.817 0.817 0 0 1 8.404 117.987 Q 8.487 117.796 8.677 117.661 Q 9.015 117.421 9.604 117.421 A 2.713 2.713 0 0 1 10.677 117.644 L 10.495 118.063 Q 9.983 117.852 9.567 117.852 A 1.888 1.888 0 0 0 9.376 117.861 Q 9.149 117.884 9.015 117.967 Q 8.829 118.081 8.829 118.283 A 0.445 0.445 0 0 0 8.844 118.398 A 0.353 0.353 0 0 0 8.899 118.515 A 0.474 0.474 0 0 0 8.966 118.589 Q 9.029 118.646 9.124 118.698 Q 9.279 118.785 9.719 118.95 A 4.837 4.837 0 0 1 9.997 119.06 Q 10.267 119.178 10.426 119.296 A 0.881 0.881 0 0 1 10.536 119.393 A 0.764 0.764 0 0 1 10.746 119.877 A 1.015 1.015 0 0 1 10.749 119.954 Q 10.749 120.429 10.395 120.686 A 1.207 1.207 0 0 1 10.031 120.862 Q 9.867 120.912 9.67 120.931 A 2.736 2.736 0 0 1 9.403 120.944 A 3.462 3.462 0 0 1 9.009 120.923 Q 8.609 120.877 8.348 120.73 Z M 15.574 120.882 L 15.506 120.426 L 15.478 120.426 A 1.159 1.159 0 0 1 14.627 120.931 A 1.737 1.737 0 0 1 14.411 120.944 A 1.56 1.56 0 0 1 13.962 120.882 A 1.178 1.178 0 0 1 13.374 120.488 A 1.506 1.506 0 0 1 13.11 119.981 Q 13.003 119.641 13.003 119.192 A 3.055 3.055 0 0 1 13.043 118.683 Q 13.089 118.411 13.188 118.193 A 1.454 1.454 0 0 1 13.376 117.886 A 1.213 1.213 0 0 1 14.24 117.429 A 1.739 1.739 0 0 1 14.411 117.421 A 1.516 1.516 0 0 1 14.867 117.486 A 1.17 1.17 0 0 1 15.472 117.923 L 15.512 117.923 L 15.491 117.678 L 15.478 117.439 L 15.478 116.056 L 15.993 116.056 L 15.993 120.882 L 15.574 120.882 Z M 19.77 118.95 L 19.77 119.275 L 17.429 119.275 Q 17.439 119.684 17.577 119.958 A 0.967 0.967 0 0 0 17.731 120.184 A 0.935 0.935 0 0 0 18.222 120.461 A 1.417 1.417 0 0 0 18.539 120.494 A 2.719 2.719 0 0 0 19.557 120.292 A 3.116 3.116 0 0 0 19.625 120.265 L 19.625 120.724 Q 19.352 120.841 19.108 120.893 Q 18.865 120.944 18.52 120.944 A 2.001 2.001 0 0 1 18.02 120.884 A 1.417 1.417 0 0 1 17.331 120.485 A 1.515 1.515 0 0 1 16.969 119.819 Q 16.906 119.583 16.897 119.303 A 2.94 2.94 0 0 1 16.895 119.21 A 2.703 2.703 0 0 1 16.945 118.674 Q 17.011 118.348 17.164 118.095 A 1.524 1.524 0 0 1 17.3 117.905 Q 17.705 117.421 18.387 117.421 A 1.568 1.568 0 0 1 18.829 117.48 A 1.193 1.193 0 0 1 19.398 117.841 A 1.439 1.439 0 0 1 19.724 118.499 A 2.095 2.095 0 0 1 19.77 118.95 Z M 23.388 119.223 A 5.989 5.989 0 0 0 23.417 118.608 A 5.406 5.406 0 0 0 23.382 117.97 Q 23.345 117.657 23.268 117.399 A 2.068 2.068 0 0 0 23.034 116.875 A 1.593 1.593 0 0 0 23.012 116.84 Q 22.777 116.494 22.417 116.361 A 1.438 1.438 0 0 0 21.913 116.276 A 1.753 1.753 0 0 0 21.659 116.294 A 1.195 1.195 0 0 0 20.787 116.85 A 1.557 1.557 0 0 0 20.72 116.967 Q 20.418 117.538 20.418 118.608 A 6.804 6.804 0 0 0 20.419 118.654 Q 20.426 119.768 20.8 120.35 Q 21.038 120.721 21.414 120.86 A 1.427 1.427 0 0 0 21.913 120.944 A 1.757 1.757 0 0 0 22.175 120.925 A 1.2 1.2 0 0 0 23.047 120.364 A 1.578 1.578 0 0 0 23.102 120.27 Q 23.321 119.868 23.388 119.223 Z M 20.939 118.608 A 6.724 6.724 0 0 0 20.956 119.096 Q 20.991 119.572 21.099 119.878 A 1.377 1.377 0 0 0 21.172 120.049 Q 21.381 120.455 21.814 120.496 A 1.059 1.059 0 0 0 21.913 120.5 A 0.9 0.9 0 0 0 22.238 120.444 Q 22.509 120.34 22.659 120.043 A 1.658 1.658 0 0 0 22.78 119.711 Q 22.865 119.379 22.885 118.897 A 7.289 7.289 0 0 0 22.89 118.608 A 6.582 6.582 0 0 0 22.873 118.113 Q 22.837 117.641 22.727 117.336 A 1.393 1.393 0 0 0 22.659 117.177 Q 22.453 116.773 22.023 116.728 A 1.068 1.068 0 0 0 21.913 116.723 Q 21.405 116.723 21.172 117.171 A 1.562 1.562 0 0 0 21.054 117.485 Q 20.966 117.812 20.946 118.297 A 7.328 7.328 0 0 0 20.939 118.608 Z M 12.101 117.483 L 12.101 120.882 L 11.586 120.882 L 11.586 117.483 L 12.101 117.483 Z M 15.478 119.3 L 15.478 119.192 A 3.435 3.435 0 0 0 15.461 118.837 Q 15.414 118.387 15.238 118.16 A 0.752 0.752 0 0 0 14.858 117.905 Q 14.731 117.865 14.576 117.855 A 1.656 1.656 0 0 0 14.47 117.852 A 0.924 0.924 0 0 0 14.161 117.901 A 0.768 0.768 0 0 0 13.777 118.204 A 1.213 1.213 0 0 0 13.622 118.538 Q 13.574 118.695 13.553 118.884 A 2.871 2.871 0 0 0 13.537 119.198 A 2.845 2.845 0 0 0 13.558 119.556 Q 13.58 119.734 13.627 119.878 A 1.085 1.085 0 0 0 13.776 120.181 A 0.776 0.776 0 0 0 14.338 120.505 A 1.153 1.153 0 0 0 14.476 120.513 Q 15.004 120.513 15.241 120.226 Q 15.463 119.957 15.477 119.38 A 3.263 3.263 0 0 0 15.478 119.3 Z M 17.441 118.857 L 19.218 118.857 A 1.754 1.754 0 0 0 19.197 118.575 Q 19.15 118.289 19.001 118.111 Q 18.784 117.852 18.381 117.852 A 1.015 1.015 0 0 0 18.088 117.892 A 0.784 0.784 0 0 0 17.728 118.118 A 1.017 1.017 0 0 0 17.526 118.46 Q 17.462 118.636 17.441 118.857 Z M 11.55 116.467 A 0.57 0.57 0 0 0 11.543 116.562 Q 11.543 116.735 11.63 116.821 Q 11.716 116.906 11.847 116.906 Q 11.971 116.906 12.061 116.821 Q 12.123 116.761 12.142 116.659 A 0.533 0.533 0 0 0 12.151 116.562 A 0.589 0.589 0 0 0 12.148 116.506 Q 12.135 116.374 12.061 116.304 Q 11.971 116.221 11.847 116.221 A 0.393 0.393 0 0 0 11.821 116.221 A 0.298 0.298 0 0 0 11.63 116.303 Q 11.568 116.361 11.55 116.467 Z"
       id="side0_labelLayer"
       stroke="#777777"
       fill="#777777"
       style="stroke:#777777;fill:#777777"
       vector-effect="non-scaling-stroke" />
    <path
       d="M 54.885 156.707 L 54.885 154 L 66.22 154 L 66.513 153.707 L 66.513 144.543 L 66.22 144.25 L 55.317 144.25 L 55.317 137.75 L 66.22 137.75 L 66.513 137.457 L 66.513 129.543 L 66.22 129.25 L 55.317 129.25 L 55.317 122.75 L 66.22 122.75 L 66.513 122.457 L 66.513 114.543 L 66.22 114.25 L 55.317 114.25 L 55.317 107.75 L 66.22 107.75 L 66.513 107.457 L 66.513 99.543 L 66.22 99.25 L 55.317 99.25 L 55.317 92.75 L 66.22 92.75 L 66.513 92.457 L 66.513 83.293 L 66.22 83 L 54.885 83 L 54.885 80.293 L 54.592 80 L 46.678 80 L 46.385 80.293 L 46.385 83 L 46.245 83 L 45.953 83.293 L 45.953 91.75 L 35.049 91.75 L 34.756 92.043 L 34.756 99.957 L 35.049 100.25 L 45.953 100.25 L 45.953 106.75 L 35.049 106.75 L 34.756 107.043 L 34.756 114.957 L 35.049 115.25 L 45.953 115.25 L 45.953 121.75 L 35.049 121.75 L 34.756 122.043 L 34.756 129.957 L 35.049 130.25 L 45.953 130.25 L 45.953 136.75 L 35.049 136.75 L 34.756 137.043 L 34.756 144.957 L 35.049 145.25 L 45.953 145.25 L 45.953 153.707 L 46.245 154 L 46.385 154 L 46.385 156.707 L 46.678 157 L 54.592 157 L 54.885 156.707 Z"
       id="side2_outsideCutPath"
       stroke="#FF0000"
       stroke-width="0.1"
       style="stroke:#FF0000;stroke-width:0.1"
       vector-effect="non-scaling-stroke" />
    <path
       d="M 58.161 120.404 L 58.161 120.882 L 55.181 120.882 L 55.181 120.438 L 56.375 119.238 Q 56.891 118.717 57.074 118.477 A 1.747 1.747 0 0 0 57.095 118.45 A 2.348 2.348 0 0 0 57.244 118.221 A 1.734 1.734 0 0 0 57.355 117.991 A 1.297 1.297 0 0 0 57.441 117.567 A 1.494 1.494 0 0 0 57.442 117.511 A 0.965 0.965 0 0 0 57.412 117.262 A 0.692 0.692 0 0 0 57.222 116.935 A 0.727 0.727 0 0 0 56.893 116.756 Q 56.781 116.727 56.649 116.723 A 1.393 1.393 0 0 0 56.611 116.723 A 1.536 1.536 0 0 0 56.076 116.816 Q 55.823 116.909 55.513 117.154 L 55.24 116.804 A 2.339 2.339 0 0 1 55.852 116.43 A 1.975 1.975 0 0 1 56.605 116.283 Q 57.243 116.283 57.606 116.61 A 1.079 1.079 0 0 1 57.958 117.306 A 1.518 1.518 0 0 1 57.969 117.489 A 1.618 1.618 0 0 1 57.833 118.13 A 2.03 2.03 0 0 1 57.727 118.342 A 2.642 2.642 0 0 1 57.546 118.612 Q 57.336 118.891 56.988 119.244 A 11.597 11.597 0 0 1 56.822 119.409 L 55.829 120.379 L 55.829 120.404 L 58.161 120.404 Z M 43.117 120.73 L 43.117 120.252 A 2.549 2.549 0 0 0 43.641 120.447 A 2.927 2.927 0 0 0 43.643 120.448 A 2.314 2.314 0 0 0 44.011 120.511 A 1.983 1.983 0 0 0 44.184 120.519 Q 44.587 120.519 44.804 120.39 A 0.443 0.443 0 0 0 44.951 120.255 Q 45.008 120.168 45.019 120.053 A 0.591 0.591 0 0 0 45.022 119.998 A 0.411 0.411 0 0 0 44.896 119.7 A 0.589 0.589 0 0 0 44.849 119.658 Q 44.68 119.52 44.194 119.331 A 8.018 8.018 0 0 0 44.178 119.325 Q 43.803 119.185 43.6 119.074 A 1.39 1.39 0 0 1 43.503 119.016 A 1.12 1.12 0 0 1 43.348 118.894 Q 43.261 118.811 43.206 118.717 A 0.704 0.704 0 0 1 43.122 118.482 A 0.953 0.953 0 0 1 43.108 118.317 A 0.817 0.817 0 0 1 43.173 117.987 Q 43.256 117.796 43.446 117.661 Q 43.784 117.421 44.373 117.421 A 2.713 2.713 0 0 1 45.446 117.644 L 45.263 118.063 Q 44.752 117.852 44.336 117.852 A 1.888 1.888 0 0 0 44.145 117.861 Q 43.918 117.884 43.784 117.967 Q 43.598 118.081 43.598 118.283 A 0.445 0.445 0 0 0 43.612 118.398 A 0.353 0.353 0 0 0 43.668 118.515 A 0.474 0.474 0 0 0 43.735 118.589 Q 43.798 118.646 43.893 118.698 Q 44.048 118.785 44.488 118.95 A 4.837 4.837 0 0 1 44.766 119.06 Q 45.036 119.178 45.194 119.296 A 0.881 0.881 0 0 1 45.305 119.393 A 0.764 0.764 0 0 1 45.515 119.877 A 1.015 1.015 0 0 1 45.518 119.954 Q 45.518 120.429 45.164 120.686 A 1.207 1.207 0 0 1 44.8 120.862 Q 44.636 120.912 44.439 120.931 A 2.736 2.736 0 0 1 44.172 120.944 A 3.462 3.462 0 0 1 43.778 120.923 Q 43.377 120.877 43.117 120.73 Z M 50.343 120.882 L 50.275 120.426 L 50.247 120.426 A 1.159 1.159 0 0 1 49.396 120.931 A 1.737 1.737 0 0 1 49.18 120.944 A 1.56 1.56 0 0 1 48.731 120.882 A 1.178 1.178 0 0 1 48.143 120.488 A 1.506 1.506 0 0 1 47.878 119.981 Q 47.772 119.641 47.772 119.192 A 3.055 3.055 0 0 1 47.812 118.683 Q 47.858 118.411 47.957 118.193 A 1.454 1.454 0 0 1 48.144 117.886 A 1.213 1.213 0 0 1 49.009 117.429 A 1.739 1.739 0 0 1 49.18 117.421 A 1.516 1.516 0 0 1 49.636 117.486 A 1.17 1.17 0 0 1 50.241 117.923 L 50.281 117.923 L 50.259 117.678 L 50.247 117.439 L 50.247 116.056 L 50.762 116.056 L 50.762 120.882 L 50.343 120.882 Z M 54.539 118.95 L 54.539 119.275 L 52.198 119.275 Q 52.208 119.684 52.346 119.958 A 0.967 0.967 0 0 0 52.5 120.184 A 0.935 0.935 0 0 0 52.991 120.461 A 1.417 1.417 0 0 0 53.308 120.494 A 2.719 2.719 0 0 0 54.326 120.292 A 3.116 3.116 0 0 0 54.393 120.265 L 54.393 120.724 Q 54.12 120.841 53.877 120.893 Q 53.634 120.944 53.289 120.944 A 2.001 2.001 0 0 1 52.789 120.884 A 1.417 1.417 0 0 1 52.1 120.485 A 1.515 1.515 0 0 1 51.738 119.819 Q 51.675 119.583 51.666 119.303 A 2.94 2.94 0 0 1 51.664 119.21 A 2.703 2.703 0 0 1 51.714 118.674 Q 51.78 118.348 51.933 118.095 A 1.524 1.524 0 0 1 52.069 117.905 Q 52.474 117.421 53.156 117.421 A 1.568 1.568 0 0 1 53.598 117.48 A 1.193 1.193 0 0 1 54.167 117.841 A 1.439 1.439 0 0 1 54.493 118.499 A 2.095 2.095 0 0 1 54.539 118.95 Z M 46.87 117.483 L 46.87 120.882 L 46.355 120.882 L 46.355 117.483 L 46.87 117.483 Z M 50.247 119.3 L 50.247 119.192 A 3.435 3.435 0 0 0 50.23 118.837 Q 50.183 118.387 50.007 118.16 A 0.752 0.752 0 0 0 49.627 117.905 Q 49.5 117.865 49.345 117.855 A 1.656 1.656 0 0 0 49.239 117.852 A 0.924 0.924 0 0 0 48.93 117.901 A 0.768 0.768 0 0 0 48.546 118.204 A 1.213 1.213 0 0 0 48.39 118.538 Q 48.343 118.695 48.322 118.884 A 2.871 2.871 0 0 0 48.306 119.198 A 2.845 2.845 0 0 0 48.327 119.556 Q 48.349 119.734 48.396 119.878 A 1.085 1.085 0 0 0 48.544 120.181 A 0.776 0.776 0 0 0 49.106 120.505 A 1.153 1.153 0 0 0 49.245 120.513 Q 49.773 120.513 50.01 120.226 Q 50.232 119.957 50.246 119.38 A 3.263 3.263 0 0 0 50.247 119.3 Z M 52.21 118.857 L 53.987 118.857 A 1.754 1.754 0 0 0 53.966 118.575 Q 53.919 118.289 53.77 118.111 Q 53.553 117.852 53.15 117.852 A 1.015 1.015 0 0 0 52.857 117.892 A 0.784 0.784 0 0 0 52.497 118.119 A 1.017 1.017 0 0 0 52.295 118.46 Q 52.23 118.636 52.21 118.857 Z M 46.319 116.467 A 0.57 0.57 0 0 0 46.312 116.562 Q 46.312 116.735 46.398 116.821 Q 46.485 116.906 46.616 116.906 Q 46.74 116.906 46.83 116.821 Q 46.892 116.761 46.911 116.659 A 0.533 0.533 0 0 0 46.919 116.562 A 0.589 0.589 0 0 0 46.917 116.506 Q 46.904 116.374 46.83 116.304 Q 46.74 116.221 46.616 116.221 A 0.393 0.393 0 0 0 46.59 116.221 A 0.298 0.298 0 0 0 46.398 116.303 Q 46.337 116.361 46.319 116.467 Z"
       id="side2_labelLayer"
       stroke="#777777"
       fill="#777777"
       style="stroke:#777777;fill:#777777"
       vector-effect="non-scaling-stroke" />
    <path
       d="M 89.641 156.707 L 89.641 154 L 100.976 154 L 101.269 153.707 L 101.269 144.543 L 100.976 144.25 L 90.073 144.25 L 90.073 137.75 L 100.976 137.75 L 101.269 137.457 L 101.269 129.543 L 100.976 129.25 L 90.073 129.25 L 90.073 122.75 L 100.976 122.75 L 101.269 122.457 L 101.269 114.543 L 100.976 114.25 L 90.073 114.25 L 90.073 107.75 L 100.976 107.75 L 101.269 107.457 L 101.269 99.543 L 100.976 99.25 L 90.073 99.25 L 90.073 92.75 L 100.976 92.75 L 101.269 92.457 L 101.269 83.293 L 100.976 83 L 89.641 83 L 89.641 80.293 L 89.348 80 L 81.434 80 L 81.141 80.293 L 81.141 83 L 81.002 83 L 80.709 83.293 L 80.709 91.75 L 69.806 91.75 L 69.513 92.043 L 69.513 99.957 L 69.806 100.25 L 80.709 100.25 L 80.709 106.75 L 69.806 106.75 L 69.513 107.043 L 69.513 114.957 L 69.806 115.25 L 80.709 115.25 L 80.709 121.75 L 69.806 121.75 L 69.513 122.043 L 69.513 129.957 L 69.806 130.25 L 80.709 130.25 L 80.709 136.75 L 69.806 136.75 L 69.513 137.043 L 69.513 144.957 L 69.806 145.25 L 80.709 145.25 L 80.709 153.707 L 81.002 154 L 81.141 154 L 81.141 156.707 L 81.434 157 L 89.348 157 L 89.641 156.707 Z"
       id="side4_outsideCutPath"
       stroke="#FF0000"
       stroke-width="0.1"
       style="stroke:#FF0000;stroke-width:0.1"
       vector-effect="non-scaling-stroke" />
    <path
       d="M 77.767 120.73 L 77.767 120.252 A 2.549 2.549 0 0 0 78.29 120.447 A 2.927 2.927 0 0 0 78.292 120.448 A 2.314 2.314 0 0 0 78.661 120.511 A 1.983 1.983 0 0 0 78.834 120.519 Q 79.237 120.519 79.454 120.39 A 0.443 0.443 0 0 0 79.6 120.255 Q 79.658 120.168 79.668 120.053 A 0.591 0.591 0 0 0 79.671 119.998 A 0.411 0.411 0 0 0 79.545 119.7 A 0.589 0.589 0 0 0 79.499 119.658 Q 79.33 119.52 78.844 119.331 A 8.018 8.018 0 0 0 78.827 119.325 Q 78.453 119.185 78.249 119.074 A 1.39 1.39 0 0 1 78.153 119.016 A 1.12 1.12 0 0 1 77.997 118.894 Q 77.91 118.811 77.855 118.717 A 0.704 0.704 0 0 1 77.771 118.482 A 0.953 0.953 0 0 1 77.758 118.317 A 0.817 0.817 0 0 1 77.822 117.987 Q 77.905 117.796 78.096 117.661 Q 78.434 117.421 79.023 117.421 A 2.713 2.713 0 0 1 80.096 117.644 L 79.913 118.063 Q 79.401 117.852 78.986 117.852 A 1.888 1.888 0 0 0 78.794 117.861 Q 78.567 117.884 78.434 117.967 Q 78.247 118.081 78.247 118.283 A 0.445 0.445 0 0 0 78.262 118.398 A 0.353 0.353 0 0 0 78.317 118.515 A 0.474 0.474 0 0 0 78.385 118.589 Q 78.448 118.646 78.542 118.698 Q 78.697 118.785 79.138 118.95 A 4.837 4.837 0 0 1 79.415 119.06 Q 79.685 119.178 79.844 119.296 A 0.881 0.881 0 0 1 79.955 119.393 A 0.764 0.764 0 0 1 80.164 119.877 A 1.015 1.015 0 0 1 80.167 119.954 Q 80.167 120.429 79.814 120.686 A 1.207 1.207 0 0 1 79.45 120.862 Q 79.286 120.912 79.088 120.931 A 2.736 2.736 0 0 1 78.821 120.944 A 3.462 3.462 0 0 1 78.428 120.923 Q 78.027 120.877 77.767 120.73 Z M 84.993 120.882 L 84.924 120.426 L 84.897 120.426 A 1.159 1.159 0 0 1 84.046 120.931 A 1.737 1.737 0 0 1 83.83 120.944 A 1.56 1.56 0 0 1 83.38 120.882 A 1.178 1.178 0 0 1 82.792 120.488 A 1.506 1.506 0 0 1 82.528 119.981 Q 82.422 119.641 82.422 119.192 A 3.055 3.055 0 0 1 82.461 118.683 Q 82.507 118.411 82.607 118.193 A 1.454 1.454 0 0 1 82.794 117.886 A 1.213 1.213 0 0 1 83.659 117.429 A 1.739 1.739 0 0 1 83.83 117.421 A 1.516 1.516 0 0 1 84.285 117.486 A 1.17 1.17 0 0 1 84.89 117.923 L 84.931 117.923 L 84.909 117.678 L 84.897 117.439 L 84.897 116.056 L 85.411 116.056 L 85.411 120.882 L 84.993 120.882 Z M 89.189 118.95 L 89.189 119.275 L 86.847 119.275 Q 86.858 119.684 86.995 119.958 A 0.967 0.967 0 0 0 87.15 120.184 A 0.935 0.935 0 0 0 87.641 120.461 A 1.417 1.417 0 0 0 87.957 120.494 A 2.719 2.719 0 0 0 88.976 120.292 A 3.116 3.116 0 0 0 89.043 120.265 L 89.043 120.724 Q 88.77 120.841 88.526 120.893 Q 88.283 120.944 87.939 120.944 A 2.001 2.001 0 0 1 87.438 120.884 A 1.417 1.417 0 0 1 86.749 120.485 A 1.515 1.515 0 0 1 86.387 119.819 Q 86.324 119.583 86.315 119.303 A 2.94 2.94 0 0 1 86.314 119.21 A 2.703 2.703 0 0 1 86.364 118.674 Q 86.43 118.348 86.583 118.095 A 1.524 1.524 0 0 1 86.718 117.905 Q 87.123 117.421 87.805 117.421 A 1.568 1.568 0 0 1 88.247 117.48 A 1.193 1.193 0 0 1 88.816 117.841 A 1.439 1.439 0 0 1 89.143 118.499 A 2.095 2.095 0 0 1 89.189 118.95 Z M 93.025 119.371 L 93.025 119.84 L 92.352 119.84 L 92.352 120.882 L 91.859 120.882 L 91.859 119.84 L 89.654 119.84 L 89.654 119.39 L 91.806 116.323 L 92.352 116.323 L 92.352 119.371 L 93.025 119.371 Z M 81.519 117.483 L 81.519 120.882 L 81.004 120.882 L 81.004 117.483 L 81.519 117.483 Z M 84.897 119.3 L 84.897 119.192 A 3.435 3.435 0 0 0 84.88 118.837 Q 84.833 118.387 84.656 118.16 A 0.752 0.752 0 0 0 84.276 117.905 Q 84.149 117.865 83.995 117.855 A 1.656 1.656 0 0 0 83.889 117.852 A 0.924 0.924 0 0 0 83.579 117.901 A 0.768 0.768 0 0 0 83.195 118.204 A 1.213 1.213 0 0 0 83.04 118.538 Q 82.992 118.695 82.971 118.884 A 2.871 2.871 0 0 0 82.955 119.198 A 2.845 2.845 0 0 0 82.976 119.556 Q 82.999 119.734 83.046 119.878 A 1.085 1.085 0 0 0 83.194 120.181 A 0.776 0.776 0 0 0 83.756 120.505 A 1.153 1.153 0 0 0 83.895 120.513 Q 84.422 120.513 84.659 120.226 Q 84.881 119.957 84.896 119.38 A 3.263 3.263 0 0 0 84.897 119.3 Z M 90.169 119.371 L 91.859 119.371 L 91.859 117.864 Q 91.859 117.45 91.886 116.936 A 24.88 24.88 0 0 1 91.89 116.863 L 91.865 116.863 A 6.393 6.393 0 0 1 91.756 117.071 Q 91.7 117.173 91.648 117.258 A 3.072 3.072 0 0 1 91.586 117.356 L 90.169 119.371 Z M 86.86 118.857 L 88.637 118.857 A 1.754 1.754 0 0 0 88.615 118.575 Q 88.569 118.289 88.419 118.111 Q 88.202 117.852 87.799 117.852 A 1.015 1.015 0 0 0 87.506 117.892 A 0.784 0.784 0 0 0 87.146 118.119 A 1.017 1.017 0 0 0 86.944 118.46 Q 86.88 118.636 86.86 118.857 Z M 80.968 116.467 A 0.57 0.57 0 0 0 80.961 116.562 Q 80.961 116.735 81.048 116.821 Q 81.135 116.906 81.265 116.906 Q 81.389 116.906 81.479 116.821 Q 81.541 116.761 81.561 116.659 A 0.533 0.533 0 0 0 81.569 116.562 A 0.589 0.589 0 0 0 81.566 116.506 Q 81.554 116.374 81.479 116.304 Q 81.389 116.221 81.265 116.221 A 0.393 0.393 0 0 0 81.239 116.221 A 0.298 0.298 0 0 0 81.048 116.303 Q 80.986 116.361 80.968 116.467 Z"
       id="side4_labelLayer"
       stroke="#777777"
       fill="#777777"
       style="stroke:#777777;fill:#777777"
       vector-effect="non-scaling-stroke" />
    <path
       d="M 124.398 156.707 L 124.398 154 L 135.733 154 L 136.026 153.707 L 136.026 144.543 L 135.733 144.25 L 124.83 144.25 L 124.83 137.75 L 135.733 137.75 L 136.026 137.457 L 136.026 129.543 L 135.733 129.25 L 124.83 129.25 L 124.83 122.75 L 135.733 122.75 L 136.026 122.457 L 136.026 114.543 L 135.733 114.25 L 124.83 114.25 L 124.83 107.75 L 135.733 107.75 L 136.026 107.457 L 136.026 99.543 L 135.733 99.25 L 124.83 99.25 L 124.83 92.75 L 135.733 92.75 L 136.026 92.457 L 136.026 83.293 L 135.733 83 L 124.398 83 L 124.398 80.293 L 124.105 80 L 116.19 80 L 115.898 80.293 L 115.898 83 L 115.758 83 L 115.465 83.293 L 115.465 91.75 L 104.562 91.75 L 104.269 92.043 L 104.269 99.957 L 104.562 100.25 L 115.465 100.25 L 115.465 106.75 L 104.562 106.75 L 104.269 107.043 L 104.269 114.957 L 104.562 115.25 L 115.465 115.25 L 115.465 121.75 L 104.562 121.75 L 104.269 122.043 L 104.269 129.957 L 104.562 130.25 L 115.465 130.25 L 115.465 136.75 L 104.562 136.75 L 104.269 137.043 L 104.269 144.957 L 104.562 145.25 L 115.465 145.25 L 115.465 153.707 L 115.758 154 L 115.898 154 L 115.898 156.707 L 116.19 157 L 124.105 157 L 124.398 156.707 Z"
       id="side6_outsideCutPath"
       stroke="#FF0000"
       stroke-width="0.1"
       style="stroke:#FF0000;stroke-width:0.1"
       vector-effect="non-scaling-stroke" />
    <path
       d="M 127.339 116.341 L 127.339 116.785 A 1.533 1.533 0 0 0 127.066 116.724 A 2.084 2.084 0 0 0 126.793 116.707 Q 126.065 116.707 125.68 117.162 A 1.457 1.457 0 0 0 125.441 117.576 Q 125.282 117.981 125.258 118.59 L 125.296 118.59 A 1.117 1.117 0 0 1 126.107 118.076 A 1.759 1.759 0 0 1 126.375 118.056 A 1.633 1.633 0 0 1 126.78 118.104 A 1.146 1.146 0 0 1 127.338 118.426 A 1.232 1.232 0 0 1 127.644 119.007 A 1.836 1.836 0 0 1 127.69 119.427 A 2.095 2.095 0 0 1 127.644 119.878 Q 127.575 120.19 127.403 120.421 A 1.268 1.268 0 0 1 127.304 120.539 A 1.281 1.281 0 0 1 126.572 120.918 A 1.843 1.843 0 0 1 126.26 120.944 A 1.506 1.506 0 0 1 125.727 120.853 A 1.322 1.322 0 0 1 125.144 120.415 A 1.785 1.785 0 0 1 124.848 119.828 Q 124.731 119.444 124.731 118.943 Q 124.731 117.624 125.238 116.962 A 1.727 1.727 0 0 1 125.251 116.945 A 1.677 1.677 0 0 1 126.275 116.331 A 2.585 2.585 0 0 1 126.787 116.283 Q 127.126 116.283 127.325 116.338 A 0.927 0.927 0 0 1 127.339 116.341 Z M 112.615 120.73 L 112.615 120.252 A 2.549 2.549 0 0 0 113.138 120.447 A 2.927 2.927 0 0 0 113.14 120.448 A 2.314 2.314 0 0 0 113.508 120.511 A 1.983 1.983 0 0 0 113.682 120.519 Q 114.085 120.519 114.302 120.39 A 0.443 0.443 0 0 0 114.448 120.255 Q 114.506 120.168 114.516 120.053 A 0.591 0.591 0 0 0 114.519 119.998 A 0.411 0.411 0 0 0 114.393 119.7 A 0.589 0.589 0 0 0 114.347 119.658 Q 114.177 119.519 113.692 119.331 A 8.018 8.018 0 0 0 113.675 119.325 Q 113.301 119.185 113.097 119.074 A 1.39 1.39 0 0 1 113.001 119.016 A 1.12 1.12 0 0 1 112.845 118.894 Q 112.758 118.811 112.703 118.717 A 0.704 0.704 0 0 1 112.619 118.482 A 0.953 0.953 0 0 1 112.605 118.317 A 0.817 0.817 0 0 1 112.67 117.987 Q 112.753 117.796 112.943 117.661 Q 113.281 117.421 113.871 117.421 A 2.713 2.713 0 0 1 114.944 117.644 L 114.761 118.063 Q 114.249 117.852 113.833 117.852 A 1.888 1.888 0 0 0 113.642 117.861 Q 113.415 117.884 113.281 117.967 Q 113.095 118.081 113.095 118.283 A 0.445 0.445 0 0 0 113.11 118.398 A 0.353 0.353 0 0 0 113.165 118.515 A 0.474 0.474 0 0 0 113.233 118.589 Q 113.296 118.646 113.39 118.698 Q 113.545 118.785 113.985 118.95 A 4.837 4.837 0 0 1 114.263 119.06 Q 114.533 119.178 114.692 119.296 A 0.881 0.881 0 0 1 114.803 119.393 A 0.764 0.764 0 0 1 115.012 119.877 A 1.015 1.015 0 0 1 115.015 119.954 Q 115.015 120.429 114.662 120.686 A 1.207 1.207 0 0 1 114.298 120.862 Q 114.134 120.912 113.936 120.931 A 2.736 2.736 0 0 1 113.669 120.944 A 3.462 3.462 0 0 1 113.276 120.923 Q 112.875 120.877 112.615 120.73 Z M 119.841 120.882 L 119.772 120.426 L 119.744 120.426 A 1.159 1.159 0 0 1 118.893 120.931 A 1.737 1.737 0 0 1 118.678 120.944 A 1.56 1.56 0 0 1 118.228 120.882 A 1.178 1.178 0 0 1 117.64 120.488 A 1.506 1.506 0 0 1 117.376 119.981 Q 117.27 119.641 117.27 119.192 A 3.055 3.055 0 0 1 117.309 118.683 Q 117.355 118.411 117.455 118.193 A 1.454 1.454 0 0 1 117.642 117.886 A 1.213 1.213 0 0 1 118.506 117.429 A 1.739 1.739 0 0 1 118.678 117.421 A 1.516 1.516 0 0 1 119.133 117.486 A 1.17 1.17 0 0 1 119.738 117.923 L 119.779 117.923 L 119.757 117.678 L 119.744 117.439 L 119.744 116.056 L 120.259 116.056 L 120.259 120.882 L 119.841 120.882 Z M 124.036 118.95 L 124.036 119.275 L 121.695 119.275 Q 121.706 119.684 121.843 119.958 A 0.967 0.967 0 0 0 121.997 120.184 A 0.935 0.935 0 0 0 122.489 120.461 A 1.417 1.417 0 0 0 122.805 120.494 A 2.719 2.719 0 0 0 123.824 120.292 A 3.116 3.116 0 0 0 123.891 120.265 L 123.891 120.724 Q 123.618 120.841 123.374 120.893 Q 123.131 120.944 122.787 120.944 A 2.001 2.001 0 0 1 122.286 120.884 A 1.417 1.417 0 0 1 121.597 120.485 A 1.515 1.515 0 0 1 121.235 119.819 Q 121.172 119.583 121.163 119.303 A 2.94 2.94 0 0 1 121.162 119.21 A 2.703 2.703 0 0 1 121.212 118.674 Q 121.278 118.348 121.431 118.095 A 1.524 1.524 0 0 1 121.566 117.905 Q 121.971 117.421 122.653 117.421 A 1.568 1.568 0 0 1 123.095 117.48 A 1.193 1.193 0 0 1 123.664 117.841 A 1.439 1.439 0 0 1 123.99 118.499 A 2.095 2.095 0 0 1 124.036 118.95 Z M 116.367 117.483 L 116.367 120.882 L 115.852 120.882 L 115.852 117.483 L 116.367 117.483 Z M 119.744 119.3 L 119.744 119.192 A 3.435 3.435 0 0 0 119.727 118.837 Q 119.681 118.387 119.504 118.16 A 0.752 0.752 0 0 0 119.124 117.905 Q 118.997 117.865 118.843 117.855 A 1.656 1.656 0 0 0 118.737 117.852 A 0.924 0.924 0 0 0 118.427 117.901 A 0.768 0.768 0 0 0 118.043 118.204 A 1.213 1.213 0 0 0 117.888 118.538 Q 117.84 118.695 117.819 118.884 A 2.871 2.871 0 0 0 117.803 119.198 A 2.845 2.845 0 0 0 117.824 119.556 Q 117.847 119.734 117.894 119.878 A 1.085 1.085 0 0 0 118.042 120.181 A 0.776 0.776 0 0 0 118.604 120.505 A 1.153 1.153 0 0 0 118.743 120.513 Q 119.27 120.513 119.507 120.226 Q 119.729 119.957 119.743 119.38 A 3.263 3.263 0 0 0 119.744 119.3 Z M 126.254 120.506 A 1.12 1.12 0 0 0 126.539 120.472 A 0.781 0.781 0 0 0 126.938 120.229 Q 127.138 120.001 127.173 119.607 A 1.99 1.99 0 0 0 127.181 119.427 Q 127.181 119.07 127.038 118.834 A 0.799 0.799 0 0 0 126.955 118.72 Q 126.746 118.482 126.346 118.464 A 1.485 1.485 0 0 0 126.279 118.463 A 1.183 1.183 0 0 0 125.917 118.517 A 1.082 1.082 0 0 0 125.767 118.577 A 0.97 0.97 0 0 0 125.476 118.793 A 0.919 0.919 0 0 0 125.396 118.894 A 0.817 0.817 0 0 0 125.293 119.098 A 0.677 0.677 0 0 0 125.258 119.312 Q 125.258 119.632 125.382 119.908 A 1.106 1.106 0 0 0 125.575 120.205 A 0.996 0.996 0 0 0 125.734 120.345 A 0.877 0.877 0 0 0 126.254 120.506 Z M 121.707 118.857 L 123.484 118.857 A 1.754 1.754 0 0 0 123.463 118.575 Q 123.417 118.289 123.267 118.111 Q 123.05 117.852 122.647 117.852 A 1.015 1.015 0 0 0 122.354 117.892 A 0.784 0.784 0 0 0 121.994 118.118 A 1.017 1.017 0 0 0 121.792 118.46 Q 121.728 118.636 121.707 118.857 Z M 115.816 116.467 A 0.57 0.57 0 0 0 115.809 116.562 Q 115.809 116.735 115.896 116.821 Q 115.983 116.906 116.113 116.906 Q 116.237 116.906 116.327 116.821 Q 116.389 116.761 116.408 116.659 A 0.533 0.533 0 0 0 116.417 116.562 A 0.589 0.589 0 0 0 116.414 116.506 Q 116.402 116.374 116.327 116.304 Q 116.237 116.221 116.113 116.221 A 0.393 0.393 0 0 0 116.087 116.221 A 0.298 0.298 0 0 0 115.896 116.303 Q 115.834 116.361 115.816 116.467 Z"
       id="side6_labelLayer"
       stroke="#777777"
       fill="#777777"
       style="stroke:#777777;fill:#777777"
       vector-effect="non-scaling-stroke" />
    <path
       d="M 159.154 156.707 L 159.154 154 L 170.489 154 L 170.782 153.707 L 170.782 144.543 L 170.489 144.25 L 159.586 144.25 L 159.586 137.75 L 170.489 137.75 L 170.782 137.457 L 170.782 129.543 L 170.489 129.25 L 159.586 129.25 L 159.586 122.75 L 170.489 122.75 L 170.782 122.457 L 170.782 114.543 L 170.489 114.25 L 159.586 114.25 L 159.586 107.75 L 170.489 107.75 L 170.782 107.457 L 170.782 99.543 L 170.489 99.25 L 159.586 99.25 L 159.586 92.75 L 170.489 92.75 L 170.782 92.457 L 170.782 83.293 L 170.489 83 L 159.154 83 L 159.154 80.293 L 158.861 80 L 150.947 80 L 150.654 80.293 L 150.654 83 L 150.515 83 L 150.222 83.293 L 150.222 91.75 L 139.319 91.75 L 139.026 92.043 L 139.026 99.957 L 139.319 100.25 L 150.222 100.25 L 150.222 106.75 L 139.319 106.75 L 139.026 107.043 L 139.026 114.957 L 139.319 115.25 L 150.222 115.25 L 150.222 121.75 L 139.319 121.75 L 139.026 122.043 L 139.026 129.957 L 139.319 130.25 L 150.222 130.25 L 150.222 136.75 L 139.319 136.75 L 139.026 137.043 L 139.026 144.957 L 139.319 145.25 L 150.222 145.25 L 150.222 153.707 L 150.515 154 L 150.654 154 L 150.654 156.707 L 150.947 157 L 158.861 157 L 159.154 156.707 Z"
       id="side8_outsideCutPath"
       stroke="#FF0000"
       stroke-width="0.1"
       style="stroke:#FF0000;stroke-width:0.1"
       vector-effect="non-scaling-stroke" />
    <path
       d="M 147.38 120.73 L 147.38 120.252 A 2.549 2.549 0 0 0 147.904 120.447 A 2.927 2.927 0 0 0 147.906 120.448 A 2.314 2.314 0 0 0 148.274 120.511 A 1.983 1.983 0 0 0 148.447 120.519 Q 148.85 120.519 149.067 120.39 A 0.443 0.443 0 0 0 149.214 120.255 Q 149.271 120.168 149.282 120.053 A 0.591 0.591 0 0 0 149.285 119.998 A 0.411 0.411 0 0 0 149.159 119.7 A 0.589 0.589 0 0 0 149.112 119.658 Q 148.943 119.52 148.458 119.331 A 8.018 8.018 0 0 0 148.441 119.325 Q 148.066 119.185 147.863 119.074 A 1.39 1.39 0 0 1 147.767 119.016 A 1.12 1.12 0 0 1 147.611 118.894 Q 147.524 118.811 147.469 118.717 A 0.704 0.704 0 0 1 147.385 118.482 A 0.953 0.953 0 0 1 147.371 118.317 A 0.817 0.817 0 0 1 147.436 117.987 Q 147.519 117.796 147.709 117.661 Q 148.047 117.421 148.636 117.421 A 2.713 2.713 0 0 1 149.709 117.644 L 149.526 118.063 Q 149.015 117.852 148.599 117.852 A 1.888 1.888 0 0 0 148.408 117.861 Q 148.181 117.884 148.047 117.967 Q 147.861 118.081 147.861 118.283 A 0.445 0.445 0 0 0 147.875 118.398 A 0.353 0.353 0 0 0 147.931 118.515 A 0.474 0.474 0 0 0 147.998 118.589 Q 148.061 118.646 148.156 118.698 Q 148.311 118.785 148.751 118.95 A 4.837 4.837 0 0 1 149.029 119.06 Q 149.299 119.178 149.458 119.296 A 0.881 0.881 0 0 1 149.568 119.393 A 0.764 0.764 0 0 1 149.778 119.877 A 1.015 1.015 0 0 1 149.781 119.954 Q 149.781 120.429 149.427 120.686 A 1.207 1.207 0 0 1 149.063 120.862 Q 148.899 120.912 148.702 120.931 A 2.736 2.736 0 0 1 148.435 120.944 A 3.462 3.462 0 0 1 148.041 120.923 Q 147.641 120.877 147.38 120.73 Z M 154.606 120.882 L 154.538 120.426 L 154.51 120.426 A 1.159 1.159 0 0 1 153.659 120.931 A 1.737 1.737 0 0 1 153.443 120.944 A 1.56 1.56 0 0 1 152.994 120.882 A 1.178 1.178 0 0 1 152.406 120.488 A 1.506 1.506 0 0 1 152.141 119.981 Q 152.035 119.641 152.035 119.192 A 3.055 3.055 0 0 1 152.075 118.683 Q 152.121 118.411 152.22 118.193 A 1.454 1.454 0 0 1 152.408 117.886 A 1.213 1.213 0 0 1 153.272 117.429 A 1.739 1.739 0 0 1 153.443 117.421 A 1.516 1.516 0 0 1 153.899 117.486 A 1.17 1.17 0 0 1 154.504 117.923 L 154.544 117.923 L 154.523 117.678 L 154.51 117.439 L 154.51 116.056 L 155.025 116.056 L 155.025 120.882 L 154.606 120.882 Z M 158.802 118.95 L 158.802 119.275 L 156.461 119.275 Q 156.471 119.684 156.609 119.958 A 0.967 0.967 0 0 0 156.763 120.184 A 0.935 0.935 0 0 0 157.254 120.461 A 1.417 1.417 0 0 0 157.571 120.494 A 2.719 2.719 0 0 0 158.589 120.292 A 3.116 3.116 0 0 0 158.656 120.265 L 158.656 120.724 Q 158.384 120.841 158.14 120.893 Q 157.897 120.944 157.552 120.944 A 2.001 2.001 0 0 1 157.052 120.884 A 1.417 1.417 0 0 1 156.363 120.485 A 1.515 1.515 0 0 1 156.001 119.819 Q 155.938 119.583 155.929 119.303 A 2.94 2.94 0 0 1 155.927 119.21 A 2.703 2.703 0 0 1 155.977 118.674 Q 156.043 118.348 156.196 118.095 A 1.524 1.524 0 0 1 156.332 117.905 Q 156.737 117.421 157.419 117.421 A 1.568 1.568 0 0 1 157.861 117.48 A 1.193 1.193 0 0 1 158.43 117.841 A 1.439 1.439 0 0 1 158.756 118.499 A 2.095 2.095 0 0 1 158.802 118.95 Z M 161.341 116.317 A 2.162 2.162 0 0 0 160.945 116.283 A 2.42 2.42 0 0 0 160.843 116.285 Q 160.626 116.294 160.442 116.343 A 1.26 1.26 0 0 0 159.97 116.576 A 0.94 0.94 0 0 0 159.669 116.985 A 1.075 1.075 0 0 0 159.605 117.362 A 1.112 1.112 0 0 0 159.791 117.99 Q 159.978 118.27 160.406 118.512 A 2.867 2.867 0 0 0 160.28 118.573 Q 160.044 118.696 159.875 118.843 A 1.13 1.13 0 0 0 159.457 119.725 Q 159.457 120.308 159.847 120.626 Q 160.238 120.944 160.964 120.944 Q 161.277 120.944 161.529 120.873 A 1.326 1.326 0 0 0 162.043 120.607 A 1.078 1.078 0 0 0 162.372 120.125 A 1.305 1.305 0 0 0 162.437 119.706 A 1.042 1.042 0 0 0 162.204 119.035 A 1.058 1.058 0 0 0 162.193 119.022 Q 162.033 118.828 161.73 118.647 A 3.739 3.739 0 0 0 161.42 118.481 A 2.897 2.897 0 0 0 161.626 118.368 Q 161.767 118.284 161.876 118.193 A 1.292 1.292 0 0 0 162.083 117.979 Q 162.291 117.703 162.291 117.368 A 1.331 1.331 0 0 0 162.287 117.259 A 0.938 0.938 0 0 0 161.928 116.571 Q 161.69 116.382 161.341 116.317 Z M 151.133 117.483 L 151.133 120.882 L 150.618 120.882 L 150.618 117.483 L 151.133 117.483 Z M 154.51 119.3 L 154.51 119.192 A 3.435 3.435 0 0 0 154.493 118.837 Q 154.446 118.387 154.27 118.16 A 0.752 0.752 0 0 0 153.89 117.905 Q 153.763 117.865 153.608 117.855 A 1.656 1.656 0 0 0 153.502 117.852 A 0.924 0.924 0 0 0 153.193 117.901 A 0.768 0.768 0 0 0 152.809 118.204 A 1.213 1.213 0 0 0 152.653 118.538 Q 152.606 118.695 152.585 118.884 A 2.871 2.871 0 0 0 152.569 119.198 A 2.845 2.845 0 0 0 152.59 119.556 Q 152.612 119.734 152.659 119.878 A 1.085 1.085 0 0 0 152.808 120.181 A 0.776 0.776 0 0 0 153.369 120.505 A 1.153 1.153 0 0 0 153.508 120.513 Q 154.036 120.513 154.273 120.226 Q 154.495 119.957 154.509 119.38 A 3.263 3.263 0 0 0 154.51 119.3 Z M 159.965 119.737 A 0.856 0.856 0 0 0 160.001 119.991 A 0.66 0.66 0 0 0 160.224 120.317 Q 160.436 120.487 160.787 120.518 A 1.868 1.868 0 0 0 160.951 120.525 A 1.586 1.586 0 0 0 161.233 120.502 Q 161.39 120.473 161.515 120.41 A 0.796 0.796 0 0 0 161.671 120.308 A 0.71 0.71 0 0 0 161.922 119.827 A 1.01 1.01 0 0 0 161.928 119.713 A 0.7 0.7 0 0 0 161.756 119.252 A 0.963 0.963 0 0 0 161.686 119.178 A 1.219 1.219 0 0 0 161.506 119.036 Q 161.316 118.912 161.02 118.792 A 5.308 5.308 0 0 0 160.843 118.723 A 2.962 2.962 0 0 0 160.579 118.851 Q 160.451 118.922 160.352 118.997 A 1.165 1.165 0 0 0 160.173 119.162 A 0.848 0.848 0 0 0 159.965 119.727 A 1.071 1.071 0 0 0 159.965 119.737 Z M 160.939 116.701 A 1.304 1.304 0 0 0 160.697 116.722 Q 160.56 116.748 160.451 116.806 A 0.685 0.685 0 0 0 160.331 116.887 A 0.607 0.607 0 0 0 160.113 117.331 A 0.831 0.831 0 0 0 160.111 117.384 A 0.71 0.71 0 0 0 160.294 117.874 Q 160.447 118.044 160.816 118.215 A 4.187 4.187 0 0 0 160.97 118.283 A 2.956 2.956 0 0 0 161.21 118.17 Q 161.468 118.033 161.598 117.883 A 0.741 0.741 0 0 0 161.782 117.384 A 0.702 0.702 0 0 0 161.746 117.151 A 0.59 0.59 0 0 0 161.558 116.886 A 0.76 0.76 0 0 0 161.282 116.745 Q 161.13 116.701 160.939 116.701 Z M 156.473 118.857 L 158.25 118.857 A 1.754 1.754 0 0 0 158.229 118.575 Q 158.182 118.289 158.033 118.111 Q 157.816 117.852 157.413 117.852 A 1.015 1.015 0 0 0 157.12 117.892 A 0.784 0.784 0 0 0 156.76 118.119 A 1.017 1.017 0 0 0 156.558 118.46 Q 156.494 118.636 156.473 118.857 Z M 150.582 116.467 A 0.57 0.57 0 0 0 150.575 116.562 Q 150.575 116.735 150.662 116.821 Q 150.748 116.906 150.879 116.906 Q 151.003 116.906 151.093 116.821 Q 151.155 116.761 151.174 116.659 A 0.533 0.533 0 0 0 151.183 116.562 A 0.589 0.589 0 0 0 151.18 116.506 Q 151.167 116.374 151.093 116.304 Q 151.003 116.221 150.879 116.221 A 0.393 0.393 0 0 0 150.853 116.221 A 0.298 0.298 0 0 0 150.662 116.303 Q 150.6 116.361 150.582 116.467 Z"
       id="side8_labelLayer"
       stroke="#777777"
       fill="#777777"
       style="stroke:#777777;fill:#777777"
       vector-effect="non-scaling-stroke" />
    <path
       d="M 193.91 156.707 L 193.91 154 L 205.246 154 L 205.539 153.707 L 205.539 144.543 L 205.246 144.25 L 194.343 144.25 L 194.343 137.75 L 205.246 137.75 L 205.539 137.457 L 205.539 129.543 L 205.246 129.25 L 194.343 129.25 L 194.343 122.75 L 205.246 122.75 L 205.539 122.457 L 205.539 114.543 L 205.246 114.25 L 194.343 114.25 L 194.343 107.75 L 205.246 107.75 L 205.539 107.457 L 205.539 99.543 L 205.246 99.25 L 194.343 99.25 L 194.343 92.75 L 205.246 92.75 L 205.539 92.457 L 205.539 83.293 L 205.246 83 L 193.91 83 L 193.91 80.293 L 193.618 80 L 185.703 80 L 185.41 80.293 L 185.41 83 L 185.271 83 L 184.978 83.293 L 184.978 91.75 L 174.075 91.75 L 173.782 92.043 L 173.782 99.957 L 174.075 100.25 L 184.978 100.25 L 184.978 106.75 L 174.075 106.75 L 173.782 107.043 L 173.782 114.957 L 174.075 115.25 L 184.978 115.25 L 184.978 121.75 L 174.075 121.75 L 173.782 122.043 L 173.782 129.957 L 174.075 130.25 L 184.978 130.25 L 184.978 136.75 L 174.075 136.75 L 173.782 137.043 L 173.782 144.957 L 174.075 145.25 L 184.978 145.25 L 184.978 153.707 L 185.271 154 L 185.41 154 L 185.41 156.707 L 185.703 157 L 193.618 157 L 193.91 156.707 Z"
       id="side10_outsideCutPath"
       stroke="#FF0000"
       stroke-width="0.1"
       style="stroke:#FF0000;stroke-width:0.1"
       vector-effect="non-scaling-stroke" />
    <path
       d="M 180.315 120.73 L 180.315 120.252 A 2.549 2.549 0 0 0 180.838 120.447 A 2.927 2.927 0 0 0 180.841 120.448 A 2.314 2.314 0 0 0 181.209 120.511 A 1.983 1.983 0 0 0 181.382 120.519 Q 181.785 120.519 182.002 120.39 A 0.443 0.443 0 0 0 182.148 120.255 Q 182.206 120.168 182.217 120.053 A 0.591 0.591 0 0 0 182.219 119.998 A 0.411 0.411 0 0 0 182.093 119.7 A 0.589 0.589 0 0 0 182.047 119.658 Q 181.878 119.519 181.392 119.331 A 8.018 8.018 0 0 0 181.376 119.325 Q 181.001 119.185 180.797 119.074 A 1.39 1.39 0 0 1 180.701 119.016 A 1.12 1.12 0 0 1 180.546 118.894 Q 180.458 118.811 180.403 118.717 A 0.704 0.704 0 0 1 180.319 118.482 A 0.953 0.953 0 0 1 180.306 118.317 A 0.817 0.817 0 0 1 180.37 117.987 Q 180.454 117.796 180.644 117.661 Q 180.982 117.421 181.571 117.421 A 2.713 2.713 0 0 1 182.644 117.644 L 182.461 118.063 Q 181.949 117.852 181.534 117.852 A 1.888 1.888 0 0 0 181.342 117.861 Q 181.115 117.884 180.982 117.967 Q 180.796 118.081 180.796 118.283 A 0.445 0.445 0 0 0 180.81 118.398 A 0.353 0.353 0 0 0 180.865 118.515 A 0.474 0.474 0 0 0 180.933 118.589 Q 180.996 118.646 181.09 118.698 Q 181.245 118.785 181.686 118.95 A 4.837 4.837 0 0 1 181.964 119.06 Q 182.233 119.178 182.392 119.296 A 0.881 0.881 0 0 1 182.503 119.393 A 0.764 0.764 0 0 1 182.712 119.877 A 1.015 1.015 0 0 1 182.715 119.954 Q 182.715 120.429 182.362 120.686 A 1.207 1.207 0 0 1 181.998 120.862 Q 181.834 120.912 181.636 120.931 A 2.736 2.736 0 0 1 181.369 120.944 A 3.462 3.462 0 0 1 180.976 120.923 Q 180.575 120.877 180.315 120.73 Z M 187.541 120.882 L 187.473 120.426 L 187.445 120.426 A 1.159 1.159 0 0 1 186.594 120.931 A 1.737 1.737 0 0 1 186.378 120.944 A 1.56 1.56 0 0 1 185.928 120.882 A 1.178 1.178 0 0 1 185.34 120.488 A 1.506 1.506 0 0 1 185.076 119.981 Q 184.97 119.641 184.97 119.192 A 3.055 3.055 0 0 1 185.009 118.683 Q 185.055 118.411 185.155 118.193 A 1.454 1.454 0 0 1 185.342 117.886 A 1.213 1.213 0 0 1 186.207 117.429 A 1.739 1.739 0 0 1 186.378 117.421 A 1.516 1.516 0 0 1 186.833 117.486 A 1.17 1.17 0 0 1 187.438 117.923 L 187.479 117.923 L 187.457 117.678 L 187.445 117.439 L 187.445 116.056 L 187.959 116.056 L 187.959 120.882 L 187.541 120.882 Z M 191.737 118.95 L 191.737 119.275 L 189.395 119.275 Q 189.406 119.684 189.543 119.958 A 0.967 0.967 0 0 0 189.698 120.184 A 0.935 0.935 0 0 0 190.189 120.461 A 1.417 1.417 0 0 0 190.506 120.494 A 2.719 2.719 0 0 0 191.524 120.292 A 3.116 3.116 0 0 0 191.591 120.265 L 191.591 120.724 Q 191.318 120.841 191.075 120.893 Q 190.831 120.944 190.487 120.944 A 2.001 2.001 0 0 1 189.986 120.884 A 1.417 1.417 0 0 1 189.298 120.485 A 1.515 1.515 0 0 1 188.935 119.819 Q 188.872 119.583 188.863 119.303 A 2.94 2.94 0 0 1 188.862 119.21 A 2.703 2.703 0 0 1 188.912 118.674 Q 188.978 118.348 189.131 118.095 A 1.524 1.524 0 0 1 189.267 117.905 Q 189.671 117.421 190.354 117.421 A 1.568 1.568 0 0 1 190.795 117.48 A 1.193 1.193 0 0 1 191.365 117.841 A 1.439 1.439 0 0 1 191.691 118.499 A 2.095 2.095 0 0 1 191.737 118.95 Z M 194.286 116.348 L 194.286 120.882 L 193.784 120.882 L 193.784 117.65 A 11.707 11.707 0 0 1 193.795 117.116 A 9.893 9.893 0 0 1 193.808 116.887 A 2.915 2.915 0 0 1 193.739 116.954 A 3.684 3.684 0 0 1 193.663 117.024 Q 193.582 117.095 192.924 117.629 L 192.652 117.275 L 193.852 116.348 L 194.286 116.348 Z M 198.986 119.223 A 5.989 5.989 0 0 0 199.015 118.608 A 5.406 5.406 0 0 0 198.98 117.97 Q 198.943 117.657 198.866 117.399 A 2.068 2.068 0 0 0 198.632 116.875 A 1.593 1.593 0 0 0 198.61 116.84 Q 198.375 116.494 198.015 116.361 A 1.438 1.438 0 0 0 197.511 116.276 A 1.753 1.753 0 0 0 197.257 116.294 A 1.195 1.195 0 0 0 196.385 116.85 A 1.557 1.557 0 0 0 196.318 116.967 Q 196.016 117.538 196.016 118.608 A 6.804 6.804 0 0 0 196.017 118.654 Q 196.024 119.768 196.398 120.35 Q 196.636 120.721 197.012 120.86 A 1.427 1.427 0 0 0 197.511 120.944 A 1.757 1.757 0 0 0 197.773 120.925 A 1.2 1.2 0 0 0 198.645 120.364 A 1.578 1.578 0 0 0 198.7 120.27 Q 198.919 119.868 198.986 119.223 Z M 196.537 118.608 A 6.724 6.724 0 0 0 196.554 119.096 Q 196.589 119.572 196.697 119.878 A 1.377 1.377 0 0 0 196.77 120.049 Q 196.979 120.455 197.412 120.496 A 1.059 1.059 0 0 0 197.511 120.5 A 0.9 0.9 0 0 0 197.836 120.444 Q 198.107 120.34 198.257 120.043 A 1.658 1.658 0 0 0 198.378 119.711 Q 198.463 119.379 198.483 118.897 A 7.289 7.289 0 0 0 198.488 118.608 A 6.582 6.582 0 0 0 198.471 118.113 Q 198.435 117.641 198.325 117.336 A 1.393 1.393 0 0 0 198.257 117.177 Q 198.051 116.773 197.621 116.728 A 1.068 1.068 0 0 0 197.511 116.723 Q 197.003 116.723 196.77 117.171 A 1.562 1.562 0 0 0 196.652 117.485 Q 196.564 117.812 196.544 118.297 A 7.328 7.328 0 0 0 196.537 118.608 Z M 184.067 117.483 L 184.067 120.882 L 183.553 120.882 L 183.553 117.483 L 184.067 117.483 Z M 187.445 119.3 L 187.445 119.192 A 3.435 3.435 0 0 0 187.428 118.837 Q 187.381 118.387 187.204 118.16 A 0.752 0.752 0 0 0 186.824 117.905 Q 186.697 117.865 186.543 117.855 A 1.656 1.656 0 0 0 186.437 117.852 A 0.924 0.924 0 0 0 186.127 117.901 A 0.768 0.768 0 0 0 185.744 118.204 A 1.213 1.213 0 0 0 185.588 118.538 Q 185.54 118.695 185.519 118.884 A 2.871 2.871 0 0 0 185.503 119.198 A 2.845 2.845 0 0 0 185.524 119.556 Q 185.547 119.734 185.594 119.878 A 1.085 1.085 0 0 0 185.742 120.181 A 0.776 0.776 0 0 0 186.304 120.505 A 1.153 1.153 0 0 0 186.443 120.513 Q 186.97 120.513 187.207 120.226 Q 187.429 119.957 187.444 119.38 A 3.263 3.263 0 0 0 187.445 119.3 Z M 189.408 118.857 L 191.185 118.857 A 1.754 1.754 0 0 0 191.164 118.575 Q 191.117 118.289 190.968 118.111 Q 190.751 117.852 190.347 117.852 A 1.015 1.015 0 0 0 190.054 117.892 A 0.784 0.784 0 0 0 189.695 118.118 A 1.017 1.017 0 0 0 189.492 118.46 Q 189.428 118.636 189.408 118.857 Z M 183.516 116.467 A 0.57 0.57 0 0 0 183.509 116.562 Q 183.509 116.735 183.596 116.821 Q 183.683 116.906 183.813 116.906 Q 183.937 116.906 184.027 116.821 Q 184.09 116.761 184.109 116.659 A 0.533 0.533 0 0 0 184.117 116.562 A 0.589 0.589 0 0 0 184.114 116.506 Q 184.102 116.374 184.027 116.304 Q 183.937 116.221 183.813 116.221 A 0.393 0.393 0 0 0 183.787 116.221 A 0.298 0.298 0 0 0 183.596 116.303 Q 183.534 116.361 183.516 116.467 Z"
       id="side10_labelLayer"
       stroke="#777777"
       fill="#777777"
       style="stroke:#777777;fill:#777777"
       vector-effect="non-scaling-stroke" />
    <path
       d="M 35.25 76.707 L 35.25 74 L 41.75 74 L 41.75 76.707 L 42.043 77 L 48.748 77 L 48.875 76.966 L 54.682 73.613 L 54.789 73.213 L 53.435 70.869 L 59.065 67.619 L 60.418 69.963 L 60.818 70.071 L 66.625 66.718 L 66.718 66.625 L 70.071 60.818 L 69.963 60.418 L 67.619 59.065 L 70.869 53.435 L 73.213 54.789 L 73.613 54.682 L 76.966 48.875 L 77 48.748 L 77 42.043 L 76.707 41.75 L 74 41.75 L 74 35.25 L 76.707 35.25 L 77 34.957 L 77 28.252 L 76.966 28.125 L 73.613 22.318 L 73.213 22.211 L 70.869 23.565 L 67.619 17.935 L 69.963 16.582 L 70.071 16.182 L 66.718 10.375 L 66.625 10.282 L 60.818 6.929 L 60.418 7.037 L 59.065 9.381 L 53.435 6.131 L 54.789 3.787 L 54.682 3.387 L 48.875 0.034 L 48.748 0 L 42.043 0 L 41.75 0.293 L 41.75 3 L 35.25 3 L 35.25 0.293 L 34.957 0 L 28.252 0 L 28.125 0.034 L 22.318 3.387 L 22.211 3.787 L 23.565 6.131 L 17.935 9.381 L 16.582 7.037 L 16.182 6.929 L 10.375 10.282 L 10.282 10.375 L 6.929 16.182 L 7.037 16.582 L 9.381 17.935 L 6.131 23.565 L 3.787 22.211 L 3.387 22.318 L 0.034 28.125 L 0 28.252 L 0 34.957 L 0.293 35.25 L 3 35.25 L 3 41.75 L 0.293 41.75 L 0 42.043 L 0 48.748 L 0.034 48.875 L 3.387 54.682 L 3.787 54.789 L 6.131 53.435 L 9.381 59.065 L 7.037 60.418 L 6.929 60.818 L 10.282 66.625 L 10.375 66.718 L 16.182 70.071 L 16.582 69.963 L 17.935 67.619 L 23.565 70.869 L 22.211 73.213 L 22.318 73.613 L 28.125 76.966 L 28.252 77 L 34.957 77 L 35.25 76.707 Z"
       id="top_outsideCutPath"
       stroke="#FF0000"
       stroke-width="0.1"
       style="stroke:#FF0000;stroke-width:0.1"
       vector-effect="non-scaling-stroke" />
    <path
       d="M 44.034 40.666 L 43.944 40.666 A 11.813 11.813 0 0 1 44.022 41.539 A 9.899 9.899 0 0 1 44.034 42.034 L 44.034 45.425 L 42.786 45.425 L 42.786 33.484 L 43.801 33.484 L 43.974 34.612 L 44.034 34.612 A 3.36 3.36 0 0 1 44.52 34.061 A 2.598 2.598 0 0 1 45.155 33.635 A 3.126 3.126 0 0 1 46.051 33.373 A 4.046 4.046 0 0 1 46.621 33.334 A 3.826 3.826 0 0 1 47.702 33.479 A 2.828 2.828 0 0 1 49.151 34.454 Q 49.88 35.37 50.013 36.889 A 8.128 8.128 0 0 1 50.042 37.598 A 7.319 7.319 0 0 1 49.945 38.829 Q 49.833 39.485 49.591 40.012 A 3.508 3.508 0 0 1 49.136 40.752 A 2.955 2.955 0 0 1 47.036 41.856 A 4.234 4.234 0 0 1 46.621 41.876 A 3.786 3.786 0 0 1 45.67 41.76 A 3.294 3.294 0 0 1 45.151 41.579 A 2.765 2.765 0 0 1 44.034 40.666 Z M 31.838 40.696 L 31.838 41.651 A 1.228 1.228 0 0 1 31.692 41.708 Q 31.511 41.768 31.24 41.812 A 5.41 5.41 0 0 1 30.887 41.858 Q 30.721 41.874 30.572 41.876 A 3.198 3.198 0 0 1 30.529 41.876 A 3.26 3.26 0 0 1 29.568 41.747 Q 28.512 41.421 28.236 40.274 A 3.924 3.924 0 0 1 28.138 39.357 L 28.138 34.454 L 26.957 34.454 L 26.957 33.853 L 28.138 33.334 L 28.664 31.575 L 29.386 31.575 L 29.386 33.484 L 31.777 33.484 L 31.777 34.454 L 29.386 34.454 L 29.386 39.305 A 2.514 2.514 0 0 0 29.423 39.746 Q 29.466 39.988 29.561 40.18 A 1.211 1.211 0 0 0 29.74 40.448 A 1.16 1.16 0 0 0 30.453 40.827 A 1.668 1.668 0 0 0 30.71 40.846 A 4.099 4.099 0 0 0 31.31 40.803 A 3.781 3.781 0 0 0 31.349 40.797 Q 31.643 40.751 31.821 40.701 A 1.871 1.871 0 0 0 31.838 40.696 Z M 40.483 38.852 A 6.448 6.448 0 0 0 40.598 37.598 Q 40.598 35.635 39.579 34.485 A 3.268 3.268 0 0 0 38.062 33.506 A 4.194 4.194 0 0 0 36.831 33.334 A 4.848 4.848 0 0 0 35.96 33.409 A 3.302 3.302 0 0 0 34.033 34.458 A 3.449 3.449 0 0 0 33.61 35.046 Q 33.026 36.063 33.026 37.598 A 6.244 6.244 0 0 0 33.104 38.609 A 4.618 4.618 0 0 0 33.492 39.869 Q 33.958 40.839 34.815 41.357 A 3.476 3.476 0 0 0 35.613 41.712 A 4.008 4.008 0 0 0 36.778 41.876 A 4.847 4.847 0 0 0 37.624 41.806 A 3.328 3.328 0 0 0 39.583 40.745 Q 40.257 39.993 40.483 38.852 Z M 34.585 39.33 A 2.619 2.619 0 0 0 34.951 40.004 A 2.046 2.046 0 0 0 36.283 40.789 A 3.1 3.1 0 0 0 36.808 40.831 A 2.899 2.899 0 0 0 37.573 40.736 A 2.018 2.018 0 0 0 38.669 40.008 A 2.68 2.68 0 0 0 39.086 39.195 Q 39.209 38.819 39.263 38.361 A 6.575 6.575 0 0 0 39.305 37.598 A 6.228 6.228 0 0 0 39.246 36.71 Q 39.18 36.258 39.043 35.892 A 2.57 2.57 0 0 0 38.669 35.21 A 2.053 2.053 0 0 0 37.393 34.449 A 3.148 3.148 0 0 0 36.793 34.394 Q 35.567 34.394 34.943 35.199 A 2.581 2.581 0 0 0 34.542 35.974 Q 34.319 36.645 34.319 37.598 Q 34.319 38.622 34.585 39.33 Z M 44.034 37.319 L 44.034 37.598 A 8.253 8.253 0 0 0 44.075 38.451 Q 44.165 39.311 44.452 39.835 A 1.883 1.883 0 0 0 44.613 40.083 A 1.811 1.811 0 0 0 45.532 40.703 Q 45.839 40.799 46.213 40.823 A 4.014 4.014 0 0 0 46.471 40.831 A 2.103 2.103 0 0 0 47.288 40.678 Q 47.793 40.467 48.144 39.966 A 3.018 3.018 0 0 0 48.558 39.084 Q 48.749 38.437 48.749 37.583 A 6.299 6.299 0 0 0 48.69 36.689 Q 48.625 36.237 48.488 35.869 A 2.646 2.646 0 0 0 48.144 35.218 A 1.942 1.942 0 0 0 46.723 34.409 A 2.686 2.686 0 0 0 46.441 34.394 A 3.597 3.597 0 0 0 45.769 34.453 Q 45.394 34.524 45.107 34.682 A 1.649 1.649 0 0 0 44.613 35.094 A 2.139 2.139 0 0 0 44.279 35.703 Q 44.067 36.278 44.038 37.128 A 7.944 7.944 0 0 0 44.034 37.319 Z"
       id="top_labelLayer"
       stroke="#777777"
       fill="#777777"
       style="stroke:#777777;fill:#777777"
       vector-effect="non-scaling-stroke" />
    <path
       d="M 115.25 76.707 L 115.25 74 L 121.75 74 L 121.75 76.707 L 122.043 77 L 128.748 77 L 128.875 76.966 L 134.682 73.613 L 134.789 73.213 L 133.435 70.869 L 139.065 67.619 L 140.418 69.963 L 140.818 70.071 L 146.625 66.718 L 146.718 66.625 L 150.071 60.818 L 149.963 60.418 L 147.619 59.065 L 150.869 53.435 L 153.213 54.789 L 153.613 54.682 L 156.966 48.875 L 157 48.748 L 157 42.043 L 156.707 41.75 L 154 41.75 L 154 35.25 L 156.707 35.25 L 157 34.957 L 157 28.252 L 156.966 28.125 L 153.613 22.318 L 153.213 22.211 L 150.869 23.565 L 147.619 17.935 L 149.963 16.582 L 150.071 16.182 L 146.718 10.375 L 146.625 10.282 L 140.818 6.929 L 140.418 7.037 L 139.065 9.381 L 133.435 6.131 L 134.789 3.787 L 134.682 3.387 L 128.875 0.034 L 128.748 0 L 122.043 0 L 121.75 0.293 L 121.75 3 L 115.25 3 L 115.25 0.293 L 114.957 0 L 108.252 0 L 108.125 0.034 L 102.318 3.387 L 102.211 3.787 L 103.565 6.131 L 97.935 9.381 L 96.582 7.037 L 96.182 6.929 L 90.375 10.282 L 90.282 10.375 L 86.929 16.182 L 87.037 16.582 L 89.381 17.935 L 86.131 23.565 L 83.787 22.211 L 83.387 22.318 L 80.034 28.125 L 80 28.252 L 80 34.957 L 80.293 35.25 L 83 35.25 L 83 41.75 L 80.293 41.75 L 80 42.043 L 80 48.748 L 80.034 48.875 L 83.387 54.682 L 83.787 54.789 L 86.131 53.435 L 89.381 59.065 L 87.037 60.418 L 86.929 60.818 L 90.282 66.625 L 90.375 66.718 L 96.182 70.071 L 96.582 69.963 L 97.935 67.619 L 103.565 70.869 L 102.211 73.213 L 102.318 73.613 L 108.125 76.966 L 108.252 77 L 114.957 77 L 115.25 76.707 Z"
       id="bottom_outsideCutPath"
       stroke="#FF0000"
       stroke-width="0.1"
       style="stroke:#FF0000;stroke-width:0.1"
       vector-effect="non-scaling-stroke" />
    <path
       d="M 143.833 44.275 L 142.585 44.275 L 142.585 38.913 Q 142.585 37.928 142.164 37.436 A 1.313 1.313 0 0 0 141.553 37.041 Q 141.336 36.971 141.07 36.951 A 2.897 2.897 0 0 0 140.856 36.943 A 3.212 3.212 0 0 0 140.202 37.005 Q 139.813 37.086 139.52 37.272 A 1.653 1.653 0 0 0 139.134 37.613 A 2.063 2.063 0 0 0 138.784 38.245 Q 138.577 38.825 138.577 39.673 L 138.577 44.275 L 137.329 44.275 L 137.329 38.913 Q 137.329 37.928 136.908 37.436 A 1.309 1.309 0 0 0 136.306 37.044 Q 135.997 36.943 135.592 36.943 Q 134.419 36.943 133.874 37.646 Q 133.38 38.284 133.333 39.659 A 8.691 8.691 0 0 0 133.328 39.951 L 133.328 44.275 L 132.08 44.275 L 132.08 36.033 L 133.095 36.033 L 133.298 37.161 L 133.359 37.161 A 2.453 2.453 0 0 1 134.355 36.221 A 2.964 2.964 0 0 1 135.525 35.893 A 3.579 3.579 0 0 1 135.795 35.883 A 4.087 4.087 0 0 1 136.715 35.979 Q 137.281 36.11 137.675 36.419 A 2.131 2.131 0 0 1 138.321 37.282 L 138.382 37.282 A 2.606 2.606 0 0 1 139.363 36.307 A 3.131 3.131 0 0 1 139.449 36.259 A 3.159 3.159 0 0 1 140.608 35.907 A 3.939 3.939 0 0 1 141.044 35.883 A 4.339 4.339 0 0 1 141.831 35.95 Q 142.654 36.102 143.138 36.601 A 2.15 2.15 0 0 1 143.599 37.356 Q 143.724 37.689 143.782 38.103 A 5.725 5.725 0 0 1 143.833 38.898 L 143.833 44.275 Z M 94.415 43.215 L 94.325 43.215 L 94.061 44.275 L 93.167 44.275 L 93.167 32.574 L 94.415 32.574 L 94.415 35.417 Q 94.415 36.372 94.355 37.131 L 94.415 37.131 A 2.838 2.838 0 0 1 96.486 35.928 A 4.263 4.263 0 0 1 97.002 35.898 A 3.815 3.815 0 0 1 98.075 36.041 A 2.856 2.856 0 0 1 99.524 37.007 Q 100.244 37.895 100.387 39.374 A 8.012 8.012 0 0 1 100.423 40.147 A 7.319 7.319 0 0 1 100.326 41.378 Q 100.214 42.034 99.972 42.561 A 3.508 3.508 0 0 1 99.517 43.301 A 2.955 2.955 0 0 1 97.417 44.405 A 4.234 4.234 0 0 1 97.002 44.425 A 3.786 3.786 0 0 1 96.05 44.309 A 3.294 3.294 0 0 1 95.532 44.128 A 2.765 2.765 0 0 1 94.415 43.215 Z M 115.695 43.245 L 115.695 44.2 A 1.228 1.228 0 0 1 115.55 44.257 Q 115.369 44.317 115.097 44.361 A 5.41 5.41 0 0 1 114.745 44.407 Q 114.578 44.423 114.429 44.425 A 3.198 3.198 0 0 1 114.387 44.425 A 3.26 3.26 0 0 1 113.426 44.296 Q 112.37 43.97 112.094 42.823 A 3.924 3.924 0 0 1 111.996 41.906 L 111.996 37.003 L 110.815 37.003 L 110.815 36.402 L 111.996 35.883 L 112.522 34.123 L 113.244 34.123 L 113.244 36.033 L 115.635 36.033 L 115.635 37.003 L 113.244 37.003 L 113.244 41.854 A 2.514 2.514 0 0 0 113.28 42.295 Q 113.323 42.537 113.418 42.729 A 1.211 1.211 0 0 0 113.597 42.996 A 1.16 1.16 0 0 0 114.31 43.376 A 1.668 1.668 0 0 0 114.567 43.395 A 4.099 4.099 0 0 0 115.168 43.352 A 3.781 3.781 0 0 0 115.206 43.346 Q 115.501 43.299 115.678 43.249 A 1.871 1.871 0 0 0 115.695 43.245 Z M 121.132 43.245 L 121.132 44.2 A 1.228 1.228 0 0 1 120.986 44.257 Q 120.805 44.317 120.534 44.361 A 5.41 5.41 0 0 1 120.181 44.407 Q 120.015 44.423 119.866 44.425 A 3.198 3.198 0 0 1 119.823 44.425 A 3.26 3.26 0 0 1 118.863 44.296 Q 117.807 43.97 117.53 42.823 A 3.924 3.924 0 0 1 117.432 41.906 L 117.432 37.003 L 116.252 37.003 L 116.252 36.402 L 117.432 35.883 L 117.959 34.123 L 118.68 34.123 L 118.68 36.033 L 121.072 36.033 L 121.072 37.003 L 118.68 37.003 L 118.68 41.854 A 2.514 2.514 0 0 0 118.717 42.295 Q 118.76 42.537 118.855 42.729 A 1.211 1.211 0 0 0 119.034 42.996 A 1.16 1.16 0 0 0 119.747 43.376 A 1.668 1.668 0 0 0 120.004 43.395 A 4.099 4.099 0 0 0 120.604 43.352 A 3.781 3.781 0 0 0 120.643 43.346 Q 120.937 43.299 121.115 43.249 A 1.871 1.871 0 0 0 121.132 43.245 Z M 109.603 41.401 A 6.448 6.448 0 0 0 109.717 40.147 Q 109.717 38.184 108.698 37.033 A 3.268 3.268 0 0 0 107.181 36.055 A 4.194 4.194 0 0 0 105.95 35.883 A 4.848 4.848 0 0 0 105.079 35.958 A 3.302 3.302 0 0 0 103.153 37.007 A 3.449 3.449 0 0 0 102.729 37.594 Q 102.145 38.612 102.145 40.147 A 6.244 6.244 0 0 0 102.223 41.158 A 4.618 4.618 0 0 0 102.611 42.417 Q 103.077 43.388 103.935 43.906 A 3.476 3.476 0 0 0 104.732 44.261 A 4.008 4.008 0 0 0 105.897 44.425 A 4.847 4.847 0 0 0 106.744 44.354 A 3.328 3.328 0 0 0 108.702 43.294 Q 109.376 42.542 109.603 41.401 Z M 129.777 41.401 A 6.448 6.448 0 0 0 129.892 40.147 Q 129.892 38.184 128.873 37.033 A 3.268 3.268 0 0 0 127.356 36.055 A 4.194 4.194 0 0 0 126.125 35.883 A 4.848 4.848 0 0 0 125.254 35.958 A 3.302 3.302 0 0 0 123.328 37.007 A 3.449 3.449 0 0 0 122.904 37.594 Q 122.32 38.612 122.32 40.147 A 6.244 6.244 0 0 0 122.398 41.158 A 4.618 4.618 0 0 0 122.786 42.417 Q 123.252 43.388 124.11 43.906 A 3.476 3.476 0 0 0 124.907 44.261 A 4.008 4.008 0 0 0 126.072 44.425 A 4.847 4.847 0 0 0 126.919 44.354 A 3.328 3.328 0 0 0 128.877 43.294 Q 129.551 42.542 129.777 41.401 Z M 103.704 41.879 A 2.619 2.619 0 0 0 104.07 42.553 A 2.046 2.046 0 0 0 105.402 43.338 A 3.1 3.1 0 0 0 105.927 43.38 A 2.899 2.899 0 0 0 106.692 43.285 A 2.018 2.018 0 0 0 107.788 42.557 A 2.68 2.68 0 0 0 108.206 41.744 Q 108.328 41.368 108.382 40.91 A 6.575 6.575 0 0 0 108.424 40.147 A 6.228 6.228 0 0 0 108.365 39.259 Q 108.3 38.807 108.162 38.441 A 2.57 2.57 0 0 0 107.788 37.759 A 2.053 2.053 0 0 0 106.512 36.997 A 3.148 3.148 0 0 0 105.912 36.943 Q 104.687 36.943 104.062 37.748 A 2.581 2.581 0 0 0 103.661 38.523 Q 103.438 39.194 103.438 40.147 Q 103.438 41.171 103.704 41.879 Z M 123.879 41.879 A 2.619 2.619 0 0 0 124.245 42.553 A 2.046 2.046 0 0 0 125.577 43.338 A 3.1 3.1 0 0 0 126.102 43.38 A 2.899 2.899 0 0 0 126.867 43.285 A 2.018 2.018 0 0 0 127.963 42.557 A 2.68 2.68 0 0 0 128.381 41.744 Q 128.503 41.368 128.557 40.91 A 6.575 6.575 0 0 0 128.599 40.147 A 6.228 6.228 0 0 0 128.54 39.259 Q 128.475 38.807 128.337 38.441 A 2.57 2.57 0 0 0 127.963 37.759 A 2.053 2.053 0 0 0 126.687 36.997 A 3.148 3.148 0 0 0 126.087 36.943 Q 124.861 36.943 124.237 37.748 A 2.581 2.581 0 0 0 123.836 38.523 Q 123.613 39.194 123.613 40.147 Q 123.613 41.171 123.879 41.879 Z M 96.821 36.943 A 3.508 3.508 0 0 0 96.142 37.005 Q 95.755 37.081 95.461 37.253 A 1.66 1.66 0 0 0 94.979 37.676 Q 94.483 38.321 94.423 39.74 A 9.617 9.617 0 0 0 94.415 40.147 A 8.253 8.253 0 0 0 94.456 41 Q 94.546 41.86 94.833 42.384 A 1.883 1.883 0 0 0 94.994 42.632 A 1.811 1.811 0 0 0 95.913 43.252 Q 96.22 43.348 96.594 43.372 A 4.014 4.014 0 0 0 96.851 43.38 A 2.488 2.488 0 0 0 97.558 43.285 A 1.795 1.795 0 0 0 98.566 42.542 A 2.865 2.865 0 0 0 98.92 41.775 Q 99.13 41.089 99.13 40.132 A 7.375 7.375 0 0 0 99.085 39.291 Q 98.979 38.372 98.623 37.817 A 2.071 2.071 0 0 0 98.566 37.733 Q 98.002 36.943 96.821 36.943 Z"
       id="bottom_labelLayer"
       stroke="#777777"
       fill="#777777"
       style="stroke:#777777;fill:#777777"
       vector-effect="non-scaling-stroke" />
  </g>
</svg>
