<?xml version="1.0" encoding="UTF-8" standalone="no"?>
<svg
   width="206.039mm"
   height="237.5mm"
   viewBox="0 0 206.039 237.5"
   version="1.1"
   preserveAspectRatio="xMidYMid meet"
   id="svg13756"
   sodipodi:docname="12_sided_box_clean.svg"
   inkscape:version="1.1 (1:1.1+202105261517+ce6663b3b7)"
   xmlns:inkscape="http://www.inkscape.org/namespaces/inkscape"
   xmlns:sodipodi="http://sodipodi.sourceforge.net/DTD/sodipodi-0.dtd"
   xmlns="http://www.w3.org/2000/svg"
   xmlns:svg="http://www.w3.org/2000/svg">
  <defs
     id="defs13760" />
  <sodipodi:namedview
     id="namedview13758"
     pagecolor="#ffffff"
     bordercolor="#666666"
     borderopacity="1.0"
     inkscape:pageshadow="2"
     inkscape:pageopacity="0.0"
     inkscape:pagecheckerboard="0"
     inkscape:document-units="mm"
     showgrid="false"
     inkscape:zoom="0.74127989"
     inkscape:cx="325.11337"
     inkscape:cy="453.27009"
     inkscape:window-width="1920"
     inkscape:window-height="1043"
     inkscape:window-x="1600"
     inkscape:window-y="0"
     inkscape:window-maximized="1"
     inkscape:current-layer="svgGroup"
     fit-margin-top="0"
     fit-margin-left="0"
     fit-margin-right="0"
     fit-margin-bottom="0"
     inkscape:showpageshadow="false" />
  <g
     id="svgGroup"
     stroke-linecap="round"
     fill-rule="evenodd"
     font-size="12px"
     stroke="#000"
     stroke-width="0.25mm"
     fill="none"
     style="fill:none;stroke:#000000;stroke-width:0.25mm"
     transform="translate(0.25,0.25)">
    <path
       d="M 20.128,236.707 V 234 h 11.336 l 0.292,-0.293 v -9.164 L 31.464,224.25 H 20.56 v -6.5 h 10.904 l 0.292,-0.293 v -7.914 L 31.464,209.25 H 20.56 v -6.5 h 10.904 l 0.292,-0.293 v -7.914 L 31.464,194.25 H 20.56 v -6.5 h 10.904 l 0.292,-0.293 v -7.914 L 31.464,179.25 H 20.56 v -6.5 h 10.904 l 0.292,-0.293 v -9.164 L 31.464,163 H 20.128 v -2.707 L 19.835,160 h -7.914 l -0.293,0.293 V 163 h -0.139 l -0.293,0.293 v 8.457 H 0.293 L 0,172.043 v 7.914 l 0.293,0.293 h 10.903 v 6.5 H 0.293 L 0,187.043 v 7.914 l 0.293,0.293 h 10.903 v 6.5 H 0.293 L 0,202.043 v 7.914 l 0.293,0.293 h 10.903 v 6.5 H 0.293 L 0,217.043 v 7.914 l 0.293,0.293 h 10.903 v 8.457 L 11.489,234 h 0.139 v 2.707 L 11.921,237 h 7.914 z"
       id="side1_outsideCutPath"
       stroke="#FF0000"
       stroke-width="0.1"
       style="stroke:#000000;stroke-width:0.5;stroke-miterlimit:4;stroke-dasharray:none"
       vector-effect="non-scaling-stroke" />
    <path
       d="M 54.885,236.707 V 234 H 66.22 l 0.293,-0.293 v -9.164 L 66.22,224.25 H 55.317 v -6.5 H 66.22 l 0.293,-0.293 v -7.914 L 66.22,209.25 H 55.317 v -6.5 H 66.22 l 0.293,-0.293 v -7.914 L 66.22,194.25 H 55.317 v -6.5 H 66.22 l 0.293,-0.293 v -7.914 L 66.22,179.25 H 55.317 v -6.5 H 66.22 l 0.293,-0.293 v -9.164 L 66.22,163 H 54.885 v -2.707 L 54.592,160 h -7.914 l -0.293,0.293 V 163 h -0.14 l -0.292,0.293 v 8.457 H 35.049 l -0.293,0.293 v 7.914 l 0.293,0.293 h 10.904 v 6.5 H 35.049 l -0.293,0.293 v 7.914 l 0.293,0.293 h 10.904 v 6.5 H 35.049 l -0.293,0.293 v 7.914 l 0.293,0.293 h 10.904 v 6.5 H 35.049 l -0.293,0.293 v 7.914 l 0.293,0.293 h 10.904 v 8.457 L 46.245,234 h 0.14 v 2.707 L 46.678,237 h 7.914 z"
       id="side3_outsideCutPath"
       stroke="#FF0000"
       stroke-width="0.1"
       style="stroke:#000000;stroke-width:0.5;stroke-miterlimit:4;stroke-dasharray:none"
       vector-effect="non-scaling-stroke" />
    <path
       d="M 89.641,236.707 V 234 h 11.335 l 0.293,-0.293 v -9.164 l -0.293,-0.293 H 90.073 v -6.5 h 10.903 l 0.293,-0.293 v -7.914 l -0.293,-0.293 H 90.073 v -6.5 h 10.903 l 0.293,-0.293 v -7.914 l -0.293,-0.293 H 90.073 v -6.5 h 10.903 l 0.293,-0.293 v -7.914 l -0.293,-0.293 H 90.073 v -6.5 h 10.903 l 0.293,-0.293 v -9.164 L 100.976,163 H 89.641 v -2.707 L 89.348,160 h -7.914 l -0.293,0.293 V 163 h -0.139 l -0.293,0.293 v 8.457 H 69.806 l -0.293,0.293 v 7.914 l 0.293,0.293 h 10.903 v 6.5 H 69.806 l -0.293,0.293 v 7.914 l 0.293,0.293 h 10.903 v 6.5 H 69.806 l -0.293,0.293 v 7.914 l 0.293,0.293 h 10.903 v 6.5 H 69.806 l -0.293,0.293 v 7.914 l 0.293,0.293 h 10.903 v 8.457 L 81.002,234 h 0.139 v 2.707 L 81.434,237 h 7.914 z"
       id="side5_outsideCutPath"
       stroke="#FF0000"
       stroke-width="0.1"
       style="stroke:#000000;stroke-width:0.5;stroke-miterlimit:4;stroke-dasharray:none"
       vector-effect="non-scaling-stroke" />
    <path
       d="M 124.398,236.707 V 234 h 11.335 l 0.293,-0.293 v -9.164 l -0.293,-0.293 H 124.83 v -6.5 h 10.903 l 0.293,-0.293 v -7.914 l -0.293,-0.293 H 124.83 v -6.5 h 10.903 l 0.293,-0.293 v -7.914 l -0.293,-0.293 H 124.83 v -6.5 h 10.903 l 0.293,-0.293 v -7.914 l -0.293,-0.293 H 124.83 v -6.5 h 10.903 l 0.293,-0.293 v -9.164 L 135.733,163 h -11.335 v -2.707 L 124.105,160 h -7.915 l -0.292,0.293 V 163 h -0.14 l -0.293,0.293 v 8.457 h -10.903 l -0.293,0.293 v 7.914 l 0.293,0.293 h 10.903 v 6.5 h -10.903 l -0.293,0.293 v 7.914 l 0.293,0.293 h 10.903 v 6.5 h -10.903 l -0.293,0.293 v 7.914 l 0.293,0.293 h 10.903 v 6.5 h -10.903 l -0.293,0.293 v 7.914 l 0.293,0.293 h 10.903 v 8.457 l 0.293,0.293 h 0.14 v 2.707 L 116.19,237 h 7.915 z"
       id="side7_outsideCutPath"
       stroke="#FF0000"
       stroke-width="0.1"
       style="stroke:#000000;stroke-width:0.5;stroke-miterlimit:4;stroke-dasharray:none"
       vector-effect="non-scaling-stroke" />
    <path
       d="M 159.154,236.707 V 234 h 11.335 l 0.293,-0.293 v -9.164 l -0.293,-0.293 h -10.903 v -6.5 h 10.903 l 0.293,-0.293 v -7.914 l -0.293,-0.293 h -10.903 v -6.5 h 10.903 l 0.293,-0.293 v -7.914 l -0.293,-0.293 h -10.903 v -6.5 h 10.903 l 0.293,-0.293 v -7.914 l -0.293,-0.293 h -10.903 v -6.5 h 10.903 l 0.293,-0.293 v -9.164 L 170.489,163 h -11.335 v -2.707 L 158.861,160 h -7.914 l -0.293,0.293 V 163 h -0.139 l -0.293,0.293 v 8.457 h -10.903 l -0.293,0.293 v 7.914 l 0.293,0.293 h 10.903 v 6.5 h -10.903 l -0.293,0.293 v 7.914 l 0.293,0.293 h 10.903 v 6.5 h -10.903 l -0.293,0.293 v 7.914 l 0.293,0.293 h 10.903 v 6.5 h -10.903 l -0.293,0.293 v 7.914 l 0.293,0.293 h 10.903 v 8.457 l 0.293,0.293 h 0.139 v 2.707 l 0.293,0.293 h 7.914 z"
       id="side9_outsideCutPath"
       stroke="#FF0000"
       stroke-width="0.1"
       style="stroke:#000000;stroke-width:0.5;stroke-miterlimit:4;stroke-dasharray:none"
       vector-effect="non-scaling-stroke" />
    <path
       d="M 193.91,236.707 V 234 h 11.336 l 0.293,-0.293 v -9.164 l -0.293,-0.293 h -10.903 v -6.5 h 10.903 l 0.293,-0.293 v -7.914 l -0.293,-0.293 h -10.903 v -6.5 h 10.903 l 0.293,-0.293 v -7.914 l -0.293,-0.293 h -10.903 v -6.5 h 10.903 l 0.293,-0.293 v -7.914 l -0.293,-0.293 h -10.903 v -6.5 h 10.903 l 0.293,-0.293 v -9.164 L 205.246,163 H 193.91 v -2.707 L 193.618,160 h -7.915 l -0.293,0.293 V 163 h -0.139 l -0.293,0.293 v 8.457 h -10.903 l -0.293,0.293 v 7.914 l 0.293,0.293 h 10.903 v 6.5 h -10.903 l -0.293,0.293 v 7.914 l 0.293,0.293 h 10.903 v 6.5 h -10.903 l -0.293,0.293 v 7.914 l 0.293,0.293 h 10.903 v 6.5 h -10.903 l -0.293,0.293 v 7.914 l 0.293,0.293 h 10.903 v 8.457 l 0.293,0.293 h 0.139 v 2.707 l 0.293,0.293 h 7.915 z"
       id="side11_outsideCutPath"
       stroke="#FF0000"
       stroke-width="0.1"
       style="stroke:#000000;stroke-width:0.5;stroke-miterlimit:4;stroke-dasharray:none"
       vector-effect="non-scaling-stroke" />
    <path
       d="M 20.128,156.707 V 154 h 11.336 l 0.292,-0.293 v -9.164 L 31.464,144.25 H 20.56 v -6.5 h 10.904 l 0.292,-0.293 v -7.914 L 31.464,129.25 H 20.56 v -6.5 h 10.904 l 0.292,-0.293 v -7.914 L 31.464,114.25 H 20.56 v -6.5 h 10.904 l 0.292,-0.293 V 99.543 L 31.464,99.25 H 20.56 v -6.5 h 10.904 l 0.292,-0.293 V 83.293 L 31.464,83 H 20.128 V 80.293 L 19.835,80 h -7.914 l -0.293,0.293 V 83 h -0.139 l -0.293,0.293 V 91.75 H 0.293 L 0,92.043 v 7.914 l 0.293,0.293 h 10.903 v 6.5 H 0.293 L 0,107.043 v 7.914 l 0.293,0.293 h 10.903 v 6.5 H 0.293 L 0,122.043 v 7.914 l 0.293,0.293 h 10.903 v 6.5 H 0.293 L 0,137.043 v 7.914 l 0.293,0.293 h 10.903 v 8.457 L 11.489,154 h 0.139 v 2.707 L 11.921,157 h 7.914 z"
       id="side0_outsideCutPath"
       stroke="#FF0000"
       stroke-width="0.1"
       style="stroke:#000000;stroke-width:0.5;stroke-miterlimit:4;stroke-dasharray:none"
       vector-effect="non-scaling-stroke" />
    <path
       d="M 54.885,156.707 V 154 H 66.22 l 0.293,-0.293 v -9.164 L 66.22,144.25 H 55.317 v -6.5 H 66.22 l 0.293,-0.293 v -7.914 L 66.22,129.25 H 55.317 v -6.5 H 66.22 l 0.293,-0.293 v -7.914 L 66.22,114.25 H 55.317 v -6.5 H 66.22 l 0.293,-0.293 V 99.543 L 66.22,99.25 H 55.317 v -6.5 H 66.22 l 0.293,-0.293 V 83.293 L 66.22,83 H 54.885 V 80.293 L 54.592,80 h -7.914 l -0.293,0.293 V 83 h -0.14 l -0.292,0.293 V 91.75 H 35.049 l -0.293,0.293 v 7.914 l 0.293,0.293 h 10.904 v 6.5 H 35.049 l -0.293,0.293 v 7.914 l 0.293,0.293 h 10.904 v 6.5 H 35.049 l -0.293,0.293 v 7.914 l 0.293,0.293 h 10.904 v 6.5 H 35.049 l -0.293,0.293 v 7.914 l 0.293,0.293 h 10.904 v 8.457 L 46.245,154 h 0.14 v 2.707 L 46.678,157 h 7.914 z"
       id="side2_outsideCutPath"
       stroke="#FF0000"
       stroke-width="0.1"
       style="stroke:#000000;stroke-width:0.5;stroke-miterlimit:4;stroke-dasharray:none"
       vector-effect="non-scaling-stroke" />
    <path
       d="M 89.641,156.707 V 154 h 11.335 l 0.293,-0.293 v -9.164 l -0.293,-0.293 H 90.073 v -6.5 h 10.903 l 0.293,-0.293 v -7.914 l -0.293,-0.293 H 90.073 v -6.5 h 10.903 l 0.293,-0.293 v -7.914 l -0.293,-0.293 H 90.073 v -6.5 h 10.903 l 0.293,-0.293 V 99.543 L 100.976,99.25 H 90.073 v -6.5 h 10.903 l 0.293,-0.293 V 83.293 L 100.976,83 H 89.641 V 80.293 L 89.348,80 h -7.914 l -0.293,0.293 V 83 h -0.139 l -0.293,0.293 V 91.75 H 69.806 l -0.293,0.293 v 7.914 l 0.293,0.293 h 10.903 v 6.5 H 69.806 l -0.293,0.293 v 7.914 l 0.293,0.293 h 10.903 v 6.5 H 69.806 l -0.293,0.293 v 7.914 l 0.293,0.293 h 10.903 v 6.5 H 69.806 l -0.293,0.293 v 7.914 l 0.293,0.293 h 10.903 v 8.457 L 81.002,154 h 0.139 v 2.707 L 81.434,157 h 7.914 z"
       id="side4_outsideCutPath"
       stroke="#FF0000"
       stroke-width="0.1"
       style="stroke:#000000;stroke-width:0.5;stroke-miterlimit:4;stroke-dasharray:none"
       vector-effect="non-scaling-stroke" />
    <path
       d="M 124.398,156.707 V 154 h 11.335 l 0.293,-0.293 v -9.164 l -0.293,-0.293 H 124.83 v -6.5 h 10.903 l 0.293,-0.293 v -7.914 l -0.293,-0.293 H 124.83 v -6.5 h 10.903 l 0.293,-0.293 v -7.914 l -0.293,-0.293 H 124.83 v -6.5 h 10.903 l 0.293,-0.293 V 99.543 L 135.733,99.25 H 124.83 v -6.5 h 10.903 l 0.293,-0.293 V 83.293 L 135.733,83 H 124.398 V 80.293 L 124.105,80 h -7.915 l -0.292,0.293 V 83 h -0.14 l -0.293,0.293 v 8.457 h -10.903 l -0.293,0.293 v 7.914 l 0.293,0.293 h 10.903 v 6.5 h -10.903 l -0.293,0.293 v 7.914 l 0.293,0.293 h 10.903 v 6.5 h -10.903 l -0.293,0.293 v 7.914 l 0.293,0.293 h 10.903 v 6.5 h -10.903 l -0.293,0.293 v 7.914 l 0.293,0.293 h 10.903 v 8.457 l 0.293,0.293 h 0.14 v 2.707 L 116.19,157 h 7.915 z"
       id="side6_outsideCutPath"
       stroke="#FF0000"
       stroke-width="0.1"
       style="stroke:#000000;stroke-width:0.5;stroke-miterlimit:4;stroke-dasharray:none"
       vector-effect="non-scaling-stroke" />
    <path
       d="M 159.154,156.707 V 154 h 11.335 l 0.293,-0.293 v -9.164 l -0.293,-0.293 h -10.903 v -6.5 h 10.903 l 0.293,-0.293 v -7.914 l -0.293,-0.293 h -10.903 v -6.5 h 10.903 l 0.293,-0.293 v -7.914 l -0.293,-0.293 h -10.903 v -6.5 h 10.903 l 0.293,-0.293 v -7.914 l -0.293,-0.293 h -10.903 v -6.5 h 10.903 l 0.293,-0.293 V 83.293 L 170.489,83 H 159.154 V 80.293 L 158.861,80 h -7.914 l -0.293,0.293 V 83 h -0.139 l -0.293,0.293 v 8.457 h -10.903 l -0.293,0.293 v 7.914 l 0.293,0.293 h 10.903 v 6.5 h -10.903 l -0.293,0.293 v 7.914 l 0.293,0.293 h 10.903 v 6.5 h -10.903 l -0.293,0.293 v 7.914 l 0.293,0.293 h 10.903 v 6.5 h -10.903 l -0.293,0.293 v 7.914 l 0.293,0.293 h 10.903 v 8.457 l 0.293,0.293 h 0.139 v 2.707 l 0.293,0.293 h 7.914 z"
       id="side8_outsideCutPath"
       stroke="#FF0000"
       stroke-width="0.1"
       style="stroke:#000000;stroke-width:0.5;stroke-miterlimit:4;stroke-dasharray:none"
       vector-effect="non-scaling-stroke" />
    <path
       d="M 193.91,156.707 V 154 h 11.336 l 0.293,-0.293 v -9.164 l -0.293,-0.293 h -10.903 v -6.5 h 10.903 l 0.293,-0.293 v -7.914 l -0.293,-0.293 h -10.903 v -6.5 h 10.903 l 0.293,-0.293 v -7.914 l -0.293,-0.293 h -10.903 v -6.5 h 10.903 l 0.293,-0.293 v -7.914 l -0.293,-0.293 h -10.903 v -6.5 h 10.903 l 0.293,-0.293 V 83.293 L 205.246,83 H 193.91 V 80.293 L 193.618,80 h -7.915 l -0.293,0.293 V 83 h -0.139 l -0.293,0.293 v 8.457 h -10.903 l -0.293,0.293 v 7.914 l 0.293,0.293 h 10.903 v 6.5 h -10.903 l -0.293,0.293 v 7.914 l 0.293,0.293 h 10.903 v 6.5 h -10.903 l -0.293,0.293 v 7.914 l 0.293,0.293 h 10.903 v 6.5 h -10.903 l -0.293,0.293 v 7.914 l 0.293,0.293 h 10.903 v 8.457 l 0.293,0.293 h 0.139 v 2.707 l 0.293,0.293 h 7.915 z"
       id="side10_outsideCutPath"
       stroke="#FF0000"
       stroke-width="0.1"
       style="stroke:#000000;stroke-width:0.5;stroke-miterlimit:4;stroke-dasharray:none"
       vector-effect="non-scaling-stroke" />
    <path
       d="M 35.25,76.707 V 74 h 6.5 v 2.707 L 42.043,77 h 6.705 l 0.127,-0.034 5.807,-3.353 0.107,-0.4 -1.354,-2.344 5.63,-3.25 1.353,2.344 0.4,0.108 5.807,-3.353 0.093,-0.093 3.353,-5.807 -0.108,-0.4 -2.344,-1.353 3.25,-5.63 2.344,1.354 0.4,-0.107 3.353,-5.807 L 77,48.748 V 42.043 L 76.707,41.75 H 74 v -6.5 h 2.707 L 77,34.957 v -6.705 l -0.034,-0.127 -3.353,-5.807 -0.4,-0.107 -2.344,1.354 -3.25,-5.63 2.344,-1.353 0.108,-0.4 -3.353,-5.807 -0.093,-0.093 -5.807,-3.353 -0.4,0.108 -1.353,2.344 -5.63,-3.25 1.354,-2.344 -0.107,-0.4 L 48.875,0.034 48.748,0 H 42.043 L 41.75,0.293 V 3 h -6.5 V 0.293 L 34.957,0 h -6.705 l -0.127,0.034 -5.807,3.353 -0.107,0.4 1.354,2.344 -5.63,3.25 -1.353,-2.344 -0.4,-0.108 -5.807,3.353 -0.093,0.093 -3.353,5.807 0.108,0.4 2.344,1.353 -3.25,5.63 -2.344,-1.354 -0.4,0.107 L 0.034,28.125 0,28.252 v 6.705 L 0.293,35.25 H 3 v 6.5 H 0.293 L 0,42.043 v 6.705 l 0.034,0.127 3.353,5.807 0.4,0.107 2.344,-1.354 3.25,5.63 -2.344,1.353 -0.108,0.4 3.353,5.807 0.093,0.093 5.807,3.353 0.4,-0.108 1.353,-2.344 5.63,3.25 -1.354,2.344 0.107,0.4 5.807,3.353 0.127,0.034 h 6.705 z"
       id="top_outsideCutPath"
       stroke="#FF0000"
       stroke-width="0.1"
       style="stroke:#000000;stroke-width:0.5;stroke-miterlimit:4;stroke-dasharray:none"
       vector-effect="non-scaling-stroke" />
    <path
       d="M 115.25,76.707 V 74 h 6.5 v 2.707 L 122.043,77 h 6.705 l 0.127,-0.034 5.807,-3.353 0.107,-0.4 -1.354,-2.344 5.63,-3.25 1.353,2.344 0.4,0.108 5.807,-3.353 0.093,-0.093 3.353,-5.807 -0.108,-0.4 -2.344,-1.353 3.25,-5.63 2.344,1.354 0.4,-0.107 3.353,-5.807 L 157,48.748 V 42.043 L 156.707,41.75 H 154 v -6.5 h 2.707 L 157,34.957 v -6.705 l -0.034,-0.127 -3.353,-5.807 -0.4,-0.107 -2.344,1.354 -3.25,-5.63 2.344,-1.353 0.108,-0.4 -3.353,-5.807 -0.093,-0.093 -5.807,-3.353 -0.4,0.108 -1.353,2.344 -5.63,-3.25 1.354,-2.344 -0.107,-0.4 L 128.875,0.034 128.748,0 h -6.705 L 121.75,0.293 V 3 h -6.5 V 0.293 L 114.957,0 h -6.705 l -0.127,0.034 -5.807,3.353 -0.107,0.4 1.354,2.344 -5.63,3.25 -1.353,-2.344 -0.4,-0.108 -5.807,3.353 -0.093,0.093 -3.353,5.807 0.108,0.4 2.344,1.353 -3.25,5.63 -2.344,-1.354 -0.4,0.107 -3.353,5.807 L 80,28.252 v 6.705 l 0.293,0.293 H 83 v 6.5 H 80.293 L 80,42.043 v 6.705 l 0.034,0.127 3.353,5.807 0.4,0.107 2.344,-1.354 3.25,5.63 -2.344,1.353 -0.108,0.4 3.353,5.807 0.093,0.093 5.807,3.353 0.4,-0.108 1.353,-2.344 5.63,3.25 -1.354,2.344 0.107,0.4 5.807,3.353 0.127,0.034 h 6.705 z"
       id="bottom_outsideCutPath"
       stroke="#FF0000"
       stroke-width="0.1"
       style="stroke:#000000;stroke-width:0.5;stroke-miterlimit:4;stroke-dasharray:none"
       vector-effect="non-scaling-stroke" />
    <circle
       style="stroke:#050505;stroke-width:0.252785;stroke-miterlimit:4;stroke-dasharray:none;stroke-opacity:1"
       id="path15115"
       cx="38.5"
       cy="38.5"
       r="24.873608" />
  </g>
</svg>
